<mxfile host="app.diagrams.net" modified="2021-10-11T14:46:38.170Z" agent="5.0 (Windows NT 10.0; WOW64) AppleWebKit/537.36 (KHTML, like Gecko) Chrome/94.0.4606.71 Safari/537.36" etag="PmDZ5Z0Wx4Tk41V5yDde" version="15.5.0" type="github">
  <diagram id="uaGlZ_iopBenRmahdez1" name="Page-1">
    <mxGraphModel dx="1673" dy="981" grid="1" gridSize="10" guides="1" tooltips="1" connect="1" arrows="1" fold="1" page="1" pageScale="1" pageWidth="850" pageHeight="1100" math="0" shadow="0">
      <root>
        <mxCell id="0" />
        <mxCell id="1" parent="0" />
        <mxCell id="R2pW2y2t2AxiuN7zkg1l-1" value="&lt;b&gt;1 уровень.&lt;/b&gt; &lt;i&gt;ЦОД&lt;/i&gt;" style="rounded=0;whiteSpace=wrap;html=1;verticalAlign=top;align=right;" vertex="1" parent="1">
          <mxGeometry x="40" y="40" width="570" height="180" as="geometry" />
        </mxCell>
        <mxCell id="R2pW2y2t2AxiuN7zkg1l-3" value="" style="points=[];aspect=fixed;html=1;align=center;shadow=0;dashed=0;image;image=img/lib/allied_telesis/buildings/Long_Building.svg;" vertex="1" parent="1">
          <mxGeometry x="50" y="50" width="145.14" height="150" as="geometry" />
        </mxCell>
        <mxCell id="R2pW2y2t2AxiuN7zkg1l-5" value="" style="shape=image;html=1;verticalAlign=top;verticalLabelPosition=bottom;labelBackgroundColor=#ffffff;imageAspect=0;aspect=fixed;image=https://cdn2.iconfinder.com/data/icons/whcompare-isometric-web-hosting-servers/50/server-rack-2-128.png" vertex="1" parent="1">
          <mxGeometry x="260" y="60" width="100" height="100" as="geometry" />
        </mxCell>
        <mxCell id="R2pW2y2t2AxiuN7zkg1l-6" value="" style="shape=image;html=1;verticalAlign=top;verticalLabelPosition=bottom;labelBackgroundColor=#ffffff;imageAspect=0;aspect=fixed;image=https://cdn2.iconfinder.com/data/icons/whcompare-isometric-web-hosting-servers/50/server-rack-2-128.png" vertex="1" parent="1">
          <mxGeometry x="310" y="80" width="100" height="100" as="geometry" />
        </mxCell>
        <mxCell id="R2pW2y2t2AxiuN7zkg1l-7" value="" style="shape=image;html=1;verticalAlign=top;verticalLabelPosition=bottom;labelBackgroundColor=#ffffff;imageAspect=0;aspect=fixed;image=https://cdn2.iconfinder.com/data/icons/whcompare-isometric-web-hosting-servers/50/server-rack-2-128.png" vertex="1" parent="1">
          <mxGeometry x="240" y="100" width="100" height="100" as="geometry" />
        </mxCell>
        <mxCell id="R2pW2y2t2AxiuN7zkg1l-8" value="" style="shape=image;html=1;verticalAlign=top;verticalLabelPosition=bottom;labelBackgroundColor=#ffffff;imageAspect=0;aspect=fixed;image=https://cdn2.iconfinder.com/data/icons/whcompare-isometric-web-hosting-servers/50/server-rack-2-128.png" vertex="1" parent="1">
          <mxGeometry x="290" y="120" width="100" height="100" as="geometry" />
        </mxCell>
        <mxCell id="R2pW2y2t2AxiuN7zkg1l-9" value="&lt;b&gt;2 уровень.&lt;/b&gt; &lt;i&gt;Сетевая инфраструктура ЦОД&lt;/i&gt;" style="rounded=0;whiteSpace=wrap;html=1;align=right;verticalAlign=top;" vertex="1" parent="1">
          <mxGeometry x="40" y="250" width="800" height="210" as="geometry" />
        </mxCell>
        <mxCell id="R2pW2y2t2AxiuN7zkg1l-11" value="" style="shape=mxgraph.cisco.routers.router;html=1;pointerEvents=1;dashed=0;fillColor=#036897;strokeColor=#ffffff;strokeWidth=2;verticalLabelPosition=bottom;verticalAlign=top;align=center;outlineConnect=0;shadow=1;" vertex="1" parent="1">
          <mxGeometry x="220" y="420" width="50" height="34" as="geometry" />
        </mxCell>
        <mxCell id="R2pW2y2t2AxiuN7zkg1l-12" value="" style="shadow=0;dashed=0;html=1;labelPosition=center;verticalLabelPosition=bottom;verticalAlign=top;align=center;outlineConnect=0;shape=mxgraph.veeam.3d.proxy;" vertex="1" parent="1">
          <mxGeometry x="110" y="340" width="46" height="46" as="geometry" />
        </mxCell>
        <mxCell id="R2pW2y2t2AxiuN7zkg1l-13" value="" style="aspect=fixed;perimeter=ellipsePerimeter;html=1;align=center;shadow=0;dashed=0;spacingTop=3;image;image=img/lib/active_directory/internet_cloud.svg;" vertex="1" parent="1">
          <mxGeometry x="189.44" y="250" width="111.11" height="70" as="geometry" />
        </mxCell>
        <mxCell id="R2pW2y2t2AxiuN7zkg1l-14" value="&lt;b&gt;3 уровень.&lt;/b&gt; &lt;i&gt;Физические сервера.&lt;/i&gt;" style="rounded=0;whiteSpace=wrap;html=1;align=right;verticalAlign=top;" vertex="1" parent="1">
          <mxGeometry x="40" y="510" width="800" height="200" as="geometry" />
        </mxCell>
        <mxCell id="R2pW2y2t2AxiuN7zkg1l-42" value="" style="group" vertex="1" connectable="0" parent="1">
          <mxGeometry x="68.57" y="560" width="108" height="130" as="geometry" />
        </mxCell>
        <mxCell id="R2pW2y2t2AxiuN7zkg1l-15" value="" style="sketch=0;shadow=0;dashed=0;html=1;labelPosition=center;verticalLabelPosition=bottom;verticalAlign=top;align=center;outlineConnect=0;shape=mxgraph.veeam.3d.physical_storage;" vertex="1" parent="R2pW2y2t2AxiuN7zkg1l-42">
          <mxGeometry y="70" width="108" height="60" as="geometry" />
        </mxCell>
        <mxCell id="R2pW2y2t2AxiuN7zkg1l-35" value="" style="sketch=0;shadow=0;dashed=0;html=1;labelPosition=center;verticalLabelPosition=bottom;verticalAlign=top;align=center;outlineConnect=0;shape=mxgraph.veeam.3d.physical_storage;" vertex="1" parent="R2pW2y2t2AxiuN7zkg1l-42">
          <mxGeometry y="50" width="108" height="60" as="geometry" />
        </mxCell>
        <mxCell id="R2pW2y2t2AxiuN7zkg1l-34" value="" style="sketch=0;shadow=0;dashed=0;html=1;labelPosition=center;verticalLabelPosition=bottom;verticalAlign=top;align=center;outlineConnect=0;shape=mxgraph.veeam.3d.network_card;" vertex="1" parent="R2pW2y2t2AxiuN7zkg1l-42">
          <mxGeometry x="25.430000000000007" width="38" height="40" as="geometry" />
        </mxCell>
        <mxCell id="R2pW2y2t2AxiuN7zkg1l-37" value="" style="sketch=0;shadow=0;dashed=0;html=1;labelPosition=center;verticalLabelPosition=bottom;verticalAlign=top;align=center;outlineConnect=0;shape=mxgraph.veeam.3d.network_card;" vertex="1" parent="R2pW2y2t2AxiuN7zkg1l-42">
          <mxGeometry x="35.43000000000001" y="10" width="38" height="40" as="geometry" />
        </mxCell>
        <mxCell id="R2pW2y2t2AxiuN7zkg1l-38" value="" style="sketch=0;shadow=0;dashed=0;html=1;labelPosition=center;verticalLabelPosition=bottom;verticalAlign=top;align=center;outlineConnect=0;shape=mxgraph.veeam.3d.network_card;" vertex="1" parent="R2pW2y2t2AxiuN7zkg1l-42">
          <mxGeometry x="45.43000000000001" y="20" width="38" height="40" as="geometry" />
        </mxCell>
        <mxCell id="R2pW2y2t2AxiuN7zkg1l-39" value="" style="sketch=0;shadow=0;dashed=0;html=1;labelPosition=center;verticalLabelPosition=bottom;verticalAlign=top;align=center;outlineConnect=0;shape=mxgraph.veeam.3d.network_card;" vertex="1" parent="R2pW2y2t2AxiuN7zkg1l-42">
          <mxGeometry x="55.43000000000001" y="30" width="38" height="40" as="geometry" />
        </mxCell>
        <mxCell id="R2pW2y2t2AxiuN7zkg1l-40" value="" style="sketch=0;shadow=0;dashed=0;html=1;labelPosition=center;verticalLabelPosition=bottom;verticalAlign=top;align=center;outlineConnect=0;shape=mxgraph.veeam.3d.network_card;" vertex="1" parent="R2pW2y2t2AxiuN7zkg1l-42">
          <mxGeometry x="65.43" y="40" width="38" height="40" as="geometry" />
        </mxCell>
        <mxCell id="R2pW2y2t2AxiuN7zkg1l-41" value="" style="shape=image;html=1;verticalAlign=top;verticalLabelPosition=bottom;labelBackgroundColor=#ffffff;imageAspect=0;aspect=fixed;image=https://cdn4.iconfinder.com/data/icons/flat-brand-logo-2/512/nvidia-128.png" vertex="1" parent="R2pW2y2t2AxiuN7zkg1l-42">
          <mxGeometry x="76.15" y="50" width="20" height="20" as="geometry" />
        </mxCell>
        <mxCell id="R2pW2y2t2AxiuN7zkg1l-49" value="" style="group" vertex="1" connectable="0" parent="1">
          <mxGeometry x="350" y="580" width="108" height="120" as="geometry" />
        </mxCell>
        <mxCell id="R2pW2y2t2AxiuN7zkg1l-43" value="" style="sketch=0;shadow=0;dashed=0;html=1;labelPosition=center;verticalLabelPosition=bottom;verticalAlign=top;align=center;outlineConnect=0;shape=mxgraph.veeam.3d.physical_storage;" vertex="1" parent="R2pW2y2t2AxiuN7zkg1l-49">
          <mxGeometry y="60" width="108" height="60" as="geometry" />
        </mxCell>
        <mxCell id="R2pW2y2t2AxiuN7zkg1l-45" value="" style="sketch=0;shadow=0;dashed=0;html=1;labelPosition=center;verticalLabelPosition=bottom;verticalAlign=top;align=center;outlineConnect=0;shape=mxgraph.veeam.3d.physical_storage;" vertex="1" parent="R2pW2y2t2AxiuN7zkg1l-49">
          <mxGeometry y="40" width="108" height="60" as="geometry" />
        </mxCell>
        <mxCell id="R2pW2y2t2AxiuN7zkg1l-46" value="" style="shadow=0;dashed=0;html=1;labelPosition=center;verticalLabelPosition=bottom;verticalAlign=top;align=center;outlineConnect=0;shape=mxgraph.veeam.3d.datastore;" vertex="1" parent="R2pW2y2t2AxiuN7zkg1l-49">
          <mxGeometry x="15.449999999999989" width="44" height="60" as="geometry" />
        </mxCell>
        <mxCell id="R2pW2y2t2AxiuN7zkg1l-48" value="" style="shadow=0;dashed=0;html=1;labelPosition=center;verticalLabelPosition=bottom;verticalAlign=top;align=center;outlineConnect=0;shape=mxgraph.veeam.3d.datastore;" vertex="1" parent="R2pW2y2t2AxiuN7zkg1l-49">
          <mxGeometry x="45.44999999999999" y="10" width="44" height="60" as="geometry" />
        </mxCell>
        <mxCell id="R2pW2y2t2AxiuN7zkg1l-50" value="&lt;b&gt;4 уровень.&lt;/b&gt; &lt;i&gt;Управление ресурсами iPavlov&lt;/i&gt;" style="rounded=0;whiteSpace=wrap;html=1;align=right;verticalAlign=top;" vertex="1" parent="1">
          <mxGeometry x="40" y="750" width="800" height="200" as="geometry" />
        </mxCell>
        <mxCell id="R2pW2y2t2AxiuN7zkg1l-51" value="" style="shape=image;verticalLabelPosition=bottom;labelBackgroundColor=#ffffff;verticalAlign=top;aspect=fixed;imageAspect=0;image=data:image/png,iVBORw0KGgoAAAANSUhEUgAAAgAAAAEtCAIAAADxwE/YAAAABmJLR0QA/wD/AP+gvaeTAAAACXBIWXMAAAsTAAALEwEAmpwYAAAAB3RJTUUH4AQcDSo742dJmgAAIABJREFUeNrsXXlcE9f2PwGysCVBWZVVUAIiBBWMFATFBalUXCqpCyBVwIpKLSp9KM9qeT9U2gdFK6JF3OFpEUuriGLZxChVFgFBQcKiREBNIuAkAeb3R1gCJGzSFu18P3yOcebOnXPunTnnnnPPvYOr4rQCBgwYMGD450EOawIMGDBgwAwABgwYMGDADAAGDBgwYPjQodD961FJ0b49O1m5WcO6nkyhMuwcfDYGzLJz6HNqf+jOS4ln+TzusCo0t7Ba6LJkvW8AmUzpf5bP552MPZyW+mtpceEQ2Vvo4ubju9lsqmWfU+2va95mhImqsjq41XJUA7zRHEWnEHk1/YErHPSqqIiwuONHJKUW87DSY23/JhqKaAy7OcfiE/u0Bp/Pi4oIS7uWUldbPZR20NUzYNjN2RYUoqvXV0BRVTbCOixiZ6NvuQo6VgTaEuLsADkSZZB24BS9vXNE3A4KOlYKhg6Kc0MGvQoDBgxjCrjuSWC/9R5p11JGXJGPb8CefQclzYmrM2PEtenqGcTGJ/bR2o9Kiny9PYao8vogIip2hcfa7v8Ky359c35V37ZQpKosiyXQlsiqRFj2a/NlX/RtX5Omuvp/4qsGljowKGRbUIjUUwOLttJj3aGoY5KFmctdhmtZxaYodN9ByXZ4+3tY6+9h/duBsj5VXttSVj2C/LPNl337XzXu6+fYG4UBw3uEnhAQn8d7l4riYg9HRfSoknexJQBQV1vt6+3B5/Mkx7wj1v4AELTN90bqr93/ldeyxClS+5RB33KbL/u2c4pkjXmlan+cIlWeqj+UNoyMCPs58azUsf/AokmeqqutGZn2BwA+j7svdOejkh4BCWZuUtuBd9Kl/XXN0LU/AMhTDYbBSsMZV20lo+6/KXSvb7P4f/vbwEvxmmIUch+ROMRJWa7jGvswxVWHea1Pm3NZe1aF5CJDr74ymm6/7Z5AsjFzV5lKtoO2ktG0LflDrZIrjau/FrVntvidqcP06AdgAN4dccePSKrsd0RdbfXJ2MPd/z0Ze3jE2l+MfXt29GgrNX3K+lSZuq+fDWjnFPFOukjV/gMPlvvyELqzfxMNS7SoiLCRaf9uGxApYafltS2VXQ72L4a+5TYneHQgvCFqfzmqger61OGxQrQ5VNRaxWmt4rSWJQUITnuE3OL+zW8DZcGmxZAWe6/HFNX+erTYcpP7tIXxrOi5fZ4WXmVuXuM735Oot/k3dmc7VHFaqx5GW5OGeClVGld/KQS1N1gVPMCAGQCxcrnxbgP/PkiTGLNL/h6xRbmbmy2p+4ZoA9pf10jV/gCgykwcuvYXN1EfJ4DP58UdPzL0Gi4lnnnXVr2WImmEiNZrVZbF9i/WVl/45qSLpA1o5xS1pO7sXxKnSCWvTnyXCQCixZI1JkhpBU9wf4u9zSpfZyNTG89MHjc/1tPVxsjexsje1fdSMQLATfMzsvG+2AggKI5wneJ49AlSF8uw/8zTd7mjq72R/fI9l6I9vZY7OtvQvWLLBQCAlF/a5mg/zch+Gs3V+3A+DwRPIpZNoR8oRgA4aX5G9n4pEkqcZB2wlvz7d6wuoStPHW6cG+KoyU3zZmz5nQtImu80uu9ndMsp9O17NkeWvMjctigkt/qSqw7zlnjczrnkquN1CwFA6pK3MO3pzvY0mym04fo3dbEM+898fZc7LnOm2Tv7ptQCPIlwnuaZKWYMuRdkQz/wRApX++4jjbkRvvZGNjY0G5tFIcnVAqm1ATdludEyv1VMV4azDW3ZzhNxO5cyXRn2NosO3OcCADSkHfiMbm9Ds7ehM/ek1AEAkuU7jb5l29Jlro7ONnSv6Ht8XlbIzpSmkjAv7xOYE4AZgL7BineH5HToEGd9B6mwpNfQfqDx72U/se7rQHjNCR5Stb/Ksli8kcMIYmWS//15OPPkj0qKRqVhHxX3qodovVZ58SFZNmB0fSDpdvH+2bgSqvUMLQAQ1NZYxzwqzzttXbLV9zgE/laVk/cowZd7YP1WFkJdePDUwpKdQacuHvA/orH/9KbJJADkWYXWpvOZV28mOj75LrIhIDYp8+pJt7ro70oRpDTM40DDhlN5VTkPM3ZpHvbdliKYHBQdonXOf0/aKb+QkpXRUW4akk0xeYOPyb24VI5Yz8ZdAbcttmTJMS+/mu9+pegx6/v9RwKnajlGXQ+zI0qLJt07GlvjdpKVnlOW91tA4/GwTJ6sQfSRjw17QkBdMSLkWQVl0/nMy+msCJMbB2ILBZM/9dHLjsvlAgA/9zCLvGHNZClcheqlBHmf1T2Yn5dXlnPerXLn0sgniJTaAAB5UQkbYq+y0pMC+Kf35LucSrjKSgjgnYvI5gPnkv/WUvcr6XllOdlXVlZs3XKqGgBAUN1o98Plq5npSQGN0XsyYU7YQTf1qSGn4jfoYqr0wzMACUnXezzTfn8JSdd19YYR9mXYzRmgtuy8Mh/fgGGxHhgUUvi4XlaFsfH/I1Oo/QfgfceeA45/21/XvDnp0lZfKFX7E63XDsqkuYXVwsVufWykpBPQxx6QKdTQ/YdkOxBStEjo/kOyGqHwcX1EVOxQGpM0ezPRep3Udmi+7DeKPpCE0srbYdml9fxTdEMSQ2eQAICo5+CoRwJAKpPvEV2+ctQEAJKuS5AjkpVWgQBlTujJtXW7vFKmHov2ED9+JPWpbuYkAJKWuSbFeK4lEYCoOYUseMGH6sxcnvWWT41JAKDtuPFT8v2LpQjoep0K0zvrt+vFppP7+8VbDNy22Fae+rUOgJ97OFNjg49F7xJE04V2BgCDhWkoc8KSfjAuORsXvSMo7GylABEIhhQCyomyJYqFmu5mTgIAqu4MLUEDD8Bgoe+U0uM3GoHLOp6t67tSVxpXgoqL+XobfOyoAECcvHbTjBeZv7+QVhsAUIwX25IBgGygQZ7iaEEFAA09CvC4Al7epdya/IilrvZ05/lLI4uRxtxqQc9dADSm6BJ5fD6mP//BHsAsO4eVHmtHiw9dPX3JJKKhQFaqqBgLXJaYTx2SYhpg/Mv9L02q9ifNDhiK9gcAMpmyZ9+hfmGcs93D/z4+00qPtUNku6cdNm4e4O4rPNYy7OYMpR6VZcek2gBB/hleDGMUfaCudu+ZAyjKy4z27RpoE0nEAbUrv6KcT6QIKrLruidLJYbgfa+VqnaRmtIGUCW+YJVIEYo89yvHxhMpT6ozj98z7qNnAQCIZKJUvsTcCDoVfcNFXxunyFyEbLJgTdBma7Is/T8MaMz9yrr2cNr9lLgKGx8XbelcIcPpAcl263tuSmBSQXpOQXpOQU5O/uWoOUSpxTBgIaC/CwNo/+FC1vhXhsFYp7x4GLZKV09/pUevylm5WeLZiP7R//UbA/7GJlVZdgxvOEdqTGzEPtCI+8TY3VaQeiSzAQCgLjUiE2wX6pGg9sSWPTU+v7Ei9M76hg4aWDdwnEvMj75YiQAAJ/P4xUYLN2MSlxXqeUkv9upva+v2eJ2r7X9nW5+lyKWIiLjaOZv66tleDwIQEQGCAJDIFKjLrRYACIpTLpUgACCoSGHBkl37AlYuXqhRkVLKl2GKhgXKnE12L47uDKuzC3CU8ewTLT61rj0hjhQJnlw6el+LYac1/BtZuk2tjotOawQA5N6Bj619T8sI7RJJIEAEgAEzAO+MUcwgGpnuG4oNIFqvU1l2bLiV93eV4o4fvpub3WdiY6XHuv4Ltf7qdlidqKBjNQSTGfBnan8AALLdD7EbkciPjextjJixpMALPzCI5Ue99wh8T/lYGCw8+IP1Na+Qa5yB2TQPubJL84SXDc3exulAw4bYmE/h2tYt12zDotx0LUIifHkH/CIqkX5XeQWQr/zU6LJ5wIQcqvXiKfmrzZiJiGNIiHmqu/00I9fQcuvpVAAgTv8qcEa2rwPd1XVRSK6pox63tEH64LzPHICRgaMUm9TN2EY3KIGFG21ljsQ1P42IcavcaW1jQ3Nef9F4f+IuC9Lw295gTfzphRU7XafRbGw88+1+iPY1kBG/cmMIQufbDD119e9Epp+Rqevhnu5GyuNcdZz33PtLQ1lImtcUx0sNf+o9ujMRelAXy7Dxy+pvqnsWgn223KXPMuCEpOsDL16NigiTzCkEibVO/U8x7OZcSJKZKVhXWxMVEdY/xaWbPSNtJVmnZKG/RAMsxeo0QnEuIrbMtdAKOlaUTXcGuPxubjZz+SKpUvdnxtzCqo8BuJrOMptqOUAl/U+NrB0G7tkOhCdr5uNdrCAGDH8zeFkh85fme2Zc3mJFBKQ02ol5bWVCUpA56S/kAUnzsgxzy8lcqfmnGgDrlKCqU/MkBONV1wm0dDVJo+kBlA4nKYWVm2XUZ82LxJ+DDa2/9h/WJPNojX/lZCxoGkmquwT6T3H33/LBbKrlWHhN5EgUFWairLMEMzdM+2N4L0GZExoTIIjwiixGBMVhW2IpoceCzEn9s4050vJ6JZy24hNBrnRne7r9NCNn78OlCPTJxOXfP7zFmWZvQ7O3cQxKLJcRIut/XxDUXgxxpdnY0OxdV21xNmImcwGg8dYOpo2RvQ3N9TNP5jRGXC0AIJWJvstsaPY2NHtnz7j7XMlrnV23pvRbn1KX6LFszz1Bv1xehQGaa1/ozgHi7Hw+b1RSMwfAEGcvRxGiRykdXOnhzg5utehRyojjHgtclujqGQyQJhs4oGvyF0NYIHO1gYid3c4pese8TwwY/hYQZ4TEBmUt8/eshCLzgxkr9YCfu9X3OIT9VrVQE6lL9ly2fqtu9r6Bx9dp0WcEvqnp7tqA3NvnsDTywYbY6SDgVwvcC4ouaAEva8v8i+YnC6ItSNCQsuVjj8iprP6BOGn3DSn121npkZrjZQpPTnjN/1UAAA0Xg7ZlW8c/SphBqkte5fo7shBAcH+HbzQl7GYZgwL83B3L/HeaS15bfJg5/wZZFvuC6ka7K5ejDKD2hKvznoEMwAj0u7mF1Wh1FZlC3fbX6kTxZg8DFGi+7ItTpA6wWdDACAwKCdomvX5dPYOBo21/JQT5Z/tvENQN8UK5d8/9x4Dh7wDJeEtsYLJ1pElyzmLtrmzjxJ5s4z2eaRUC84Fq0HY7dsX81o1z0UWVFUWZtYiG2D3oypEVlJzNrC3KX8+4RAQARMAT8Cu4YNEnm0Dafe8x8iumbHI3JQLA5JWb7PZEAgiKL+ZrbgibQQIAXZeghXpbAZDK5BtPawVBH98gAoAAaUS0SgvupVTo+yw2JQKAxUqf6WGXZNrAXrm8CqPYtLp6BgtcloxWbaH7Dv6VM6LihU6DFmu+7Dti3bfCY+2+0J1Sl32NneG/rM0e+tsA6pePsO0/MbyHMDDWJGpYGJAHKYYAkHryentQfW454yhx7Sb3OQvtFmgU38vs0qw9+cF6a2Ozo8VTC/wGDmhqv8sbKfWo6txT6fHi3FyksQEhww2JPRhIQBpoWkMyg2A0s4CGuOZoKJGfq+msFR5r/7InQtYyV1m6T9aGcYPCR1rOPplC/SuFfRcfSLId+mwUgQHDe+kQSMk2pvTP6+0BryjlvtaafYfWeLhZk4vSKngg6FWAaPKpNe/XyNRqABA8Oexl73K0GBnSfa2c3UwexyWXCwAEtSlxuTwAIFqstW44ce4+AgCNvx/OrEUASMaL5xBzw849QQCgMdnT2XlnPtl2pUlNXHKhAEDw5NK5+0PdXGB0DACZQh00Zcjcwioh6Xqfv/4hI3HGy1CmQ+tqawYuMMS80g6E13zZT6r2l5oYKrYBI9N966WtdvaRvZJrKBhYTD6fN8S5elk+EE6RSpothe3+mwUNHedc1Zyjy3v1ZizDcvnF4e6tJijeYW+zo3R0chC5rJ000+Up0pMCefcOONN7bxTa+2lMXmW//IwE/9w0b8cDxQjUpoQsp9lMM7KZRuvcVAc4advoptpqNn5pjbUXQ1xpltNo9vaLQrpmC/nizXymGdk4e54T6w6kcJ+NxHYRe8R7ORSe82PYTzOymcboP9MouO9rbx9ROUTp/sGQkm1MofbP6+0BxSFwo9a55TRXV0evsGqGnVZjxYteBTTdouM3Q4STjQ3NfvVZ4/2JgdIycaXd12DNsYO6iS4202jOfimgSSQSATQ/jYhyyPc3srGheZ1GyEQSEYBo98OpEK1Ly81sbIxcIyAw/iCDZLDm2A/WqR72NjTXbWkaekNNbFIYWGUPutjK3MLSfKrlgsVug5Ykkyn9LURE1LE+mxuzcrNOHj+yfgg68eP5jIUubrLCRKx+WfaytP/Amz3gDR36D4rF41/V9anDjYGQyZSVHusk853IFOp633da/PWxM2Oh7PZPS/11KHsNDeADqTIT8UYOKMIT5J/pbwNaLvuqfpY4XJ7dtsw5EHqidOOhzgw8pDDu9AvHgws0hlkP0SQkIQk0RiONrzHZNyi5Rmgh7VTu4X079/xaQV0tPVRQnha2NeR4dtN0N0mDcanBNtCEe2m1b/7c1JwkKyJy78DHS4MS8xOWPr50CwKzX2+aXB3nzMifeyVnty2Zl7XvY48DJqxQvRtBfic0juXn2VHrTi1y3XaYkR5kzC/KR5bEl/9PYv0Xkh/qcZT0w9WHC8m1Z3xdveKmszZNHol0/8BRv+OF1+k9/6Va+56+2vsVJ1oExOZ0v5XRvS+nMnZfz9nd/d9DuwAATE89Xiih3INic4Jk3HxhV8n+963OTK5eeOxRhB4JeGlB8x9rmFCBl5WSaxmaXW9OAsH9Pa7+VGMNACCZe52+6tW7Zj230CS3UBky6/qy8gAAIPYhq4uTObEPWQMZgAtJqaO42pYhzT8wm2oZGBQiuVEzAOzbs4Nh59DHCSBTqH0UGZ/HHe7WmP0dDlnav3uhE9F6LYrwWq7tkDr+HdQGmFv0dWW2BYVIsr3Qpa/uJlNkVmhmYSnNE6rus6HQEDw2yhB9oO7NHsSpn/1tgPBRSvNlv+EmhpLnfrUQ8Yor2R8xgwQAggdH0gQrY6dT+fcPh+w8nM8HAC1GUGyYhync3+Ls/8KcnJfJd4hN2sDauTOtFhEIEI25+6MPfqpREcZcD7HZh8yh/NIu38hbNQBE8oyAsKgAa2KWr81W4jyDuidcfiNP1zM2eostGcnaYukhiK+KtetlNARPDm+J1doVYhNypb9+v3c0tsh6X6JG6Fap4di6K2GXYENsDHhJRED59882WgQYk0iwMTbCzooIACRLRxNS2vOCuPWBmY01+esXNR7aWllrsNLLlgwAFFs3O2RLcvmmGYdZeiHpdlQA0PVKvGqHaADwi1MqBTVHl9O21AqMF4eEHdhgDuUpueAYM4cMAHqf+tiF7kst3zRZixXtGxKbJyBpGU8FPkwZXDoMYwha5nqPtyyn7yOSACjWG2M3TQaAKcaCsC0OYQIiCYhT1kTFMkZ11YLMEJCunsEoan+QndS/fuPmPtulAUDQNr+h2I/hoo9Rab7sJ1X799nsYYCN0loGi5j339hHV09fUt7+mU5mUy37b2PX7UC8+9oIXT0DyXYY1AeS+K/0jSIE+WeaL/sNcxBmu8mDkhkt3suBy4q9Qd4YYC5IC/G/aB5VkJNXlvNbkCDCI7IzObpzf1Dz3D2XIORyTkFOdqKb4AarZ8WslF0/+dBv90oeAMk2LJ0VNr33O8TL2uef4hh1iEGRzmpofKzPPANZi291PU7H7v/UvNeUIlJ65bG5hyURqOaL3cwp4phM2L7cKWtWuvicjHXUsAy8cD10tomjXvWlU1mNAILaG+d+r2msbXxW/IKs+eLoZ3SbKUb2rjtZAioRgM+nms/dEJpUVpSX7Fa7x2tXFh9eVDZQzSmdgpD1KPwKXmPu1i2ntUJzqnLyktdQXrwZinQYxpJrouseezmvLCenICene3csbcf919PFB9P/t8lulD//INMAjG5eiq6ewQDznIeiYvuovNLiwv2hO3sHyt91k5w+Gy00X/brP54FGctcZW0UIR7/Dlfqbllk7f0wwKzAu/dLn30pBvWBerWDjI0iBPlnBPlnh/WsG3sF6N4/wuIBNKQcvW+5yd1AnD93bj3D2Z7uvHxHPo9XWsGFnv1BgTz9U+P7nq6uq0KOFxkHHFypJ+E799/1UyB190oSWc+gd8iIk7Jta6Nv7KbJpFHb6QwpulRs6Ta15zaN13Ys877BOJbooydZznRN/A/WD3ydpxi5bksznjuFTAQQIM9+v6EblJH3+NEprxcHPtuaj4Cue2zCsQ3mFACK1ZoQN7h1tlKKMyJ8lnyPOHcdgwIA2o6eSyYS/xzpMHxAkJOlK0cxL4VMocbGJw4cGe+fQRQXe1jy+y2z7BzeRfeZW1jt2d8zqEfuHJGq/RV0rJRkbPQ2wPgXuXNkWFLPsnO4ms5KSLou+aXfPmEiWSsqVnis7bO13DADcXMkfY6WazuH4gP1PC4kiur6VKk2YIjpQxIhy5WbLIriUqsrk0/UzftqoXhlvN7a2GzxJpRlV3PuRLtrA/TsD0qcHJBQ9Cg2yE23NmXffOstkl9DlLXZ8qBs1N6I+/1x5k66qYGajX/em1wPe1fJuVOplxx27pyPpcdJ27dHUHKm1GRl1wYDXFb0ItfQFz5JGaH9hm8CsA08X1b0uCo96ZA1j0e20FM3oRKmblg5gwpAMl662VxQlN+IVCYfviSR10EkUYigZUzhVvI6J6X5tTzyVE20l+Qk4sikw/BPNgBkCjUwKESWYhqZxkkYQlbPApcl/T8wsK+3E7AtKCSin68wxLF/n/kMgvXa/pktpNkBA8f0VVYn9r+KaL2O0G+kPKjUZlMtB06aupCUKusDCYeijgUGhYygHXx8A/psx6Q4N6SPVcMpUpXmhgwQ0xfbgP62UGnucM0z1XHLgrrYiKOneW4bbYlDyJ+rjHV03panMW/dpoOxu+ygsrY7AUnarp8yNm3m11Y3Staqt+5ydWt59evy6td5MTaqdok5V4OMAQQN1XU8GTk/egHpndv3F/Qe0XfeojK5SNdD7L8jpd+6bLm2IPbm6ZWT+8duuaydTl6nywUAgicnInO11riY6s5ba157IkWc4ff72UqKjbUGCYpP7NtzohQBQMpTIm4QXdYaU0zd5kLa8RuNAFB7MS5Xy23uFGP3OYLfT7AaAICbfzrlqUCmdBgwdA55JSMDPr4Bs+wcRiX0z7CbE7qf2n8udwDMsnPIznv0qKSIlZvN53HNLaz6q8gVHmtXeKy9m5vdZ3ezAYIws+zm9A+zyJEoyosPkhgBbeysDm61HNVAwXCOvNog684GvWqinkHo/kPDknoAr2jPvoPbgkLu5mb3T+PZFhSy3jfg7tAyncQOkNSelSNRyD6p7ZwiUVU2inDldawUDB0GTW3qvOp1jbgdhniVlOH59M1ugtkx5B+yxXlymm7R8eVBO51swogAVEdx/tz9nvLGHvtX/r7VddoOIgnIUzeHeRhA5wCcZB5yZdcuXy+bMCABeeqG2JhPNUDaE4LcC3GWMgncvxxrGz1I73rOQdthR06Q8pT7WiuDqAAADSn7Dhc1QdFy087sjIkb76T3GErqwoMHM/2W2h8HItF04cFEn8kAEBB9sDpotVkkAqDpEHjykDUJICgxdJevr80RARB1Fx+MDbEiAliHnPbZ5us6basAtBx3n/KZDMTJB2M3+oY4G4WQKLrTDdSxoA+GwYAbdC9JDBgwYMDwjwgBYcCAAQMGzABgwIABAwbMAGDAgAEDBswAYMCAAQMGzABgwIABAwbMAGDAgAEDhvcNnesASguKsLYYAczp/fL9cSjWLBgwYBjTQHG9DAAAmE3V/4e3yaOSmkULbIde/klFdWlBUR8bgAIAigIOh1GMYhSjY5Pi+ngAADCOqorZxZbmN0MsqayiOtnE4GnVi36mFQCHwyhGMYrRsUv7GwB5OWw+YHimQl5B+tcUUBTFAQ6jGMUoRscmlWIA5DADAICiw4jgEwkEKTUACoDDKEYxitExS7ttAGYARm4ABqgEh8MoRjGK0TFKMQ9gEAMgbg0UAO3o6D4iPtd9REYN2CQTRjGK0TFNu4NAPUpfHifX/fcm69CnM3XJeDwRr245f/PZcqHk2dH/4/3ipq675a7kXRouzVe3/aH4kr36wl/4f+7du/56mkJeXkVFRVVVVVVFRV5evvsIWeLIABAbCIxiFKMYHZu0Z9zfk78uh+v841//fPkx6q47rzo62jsexS0q3/7x9rtCXE+BUf8bt3iXO1yJvsvrPlJz5WABfddnVu6X888vVvsTby3x1+0BKCoqzmZGzVzx/axVkcrKygoKCsrKyrNWRc5c8f1sZpSiouIAwSKxjUWqsuavjrH5v4omHKAoNKUn0D67mMwb1DK3Jn8dQ9te9HyAMs1VXqtjLPfVCMfQmOLNhe0xZhtu5AuwsRVGMfo+eAD9DUCPJhS84CIkMzMdJRxODqdj93V8Qrj7OBxODid4fGq9nZHRJCOjSdaf/XCXJ4fDPT5gPWnuMjsdxQkLv/U2MtpeKJDD4eRwvF8W69gdq5YTVP/vy7nmRkaTjIymLz6Q9QInJ7i+XMds+WKzcWpm2+8Kum6qaBfsTU09kMXr5OHxsSiOy97FOrxfllmvvs6Tw+H4d6NWWxtNMjKaZDTb51S58MUpO525/+Ph5HCCrM/U5K2P1eBwcoLC7WZm/yofoQkQq/WOjo6WlpY7Cdvk5HAdHajYBsxaFdnRgcrJ4e4kbGtpaeno6EBRVLYNQMXhozdFWd8VIGKr0HN8YAqDlcTLqwKA0tBq+4uoHJkAgCcQYUxxhVGMYlQ6lWIAeqDNjImkxzOo2nQXpn94fCqXwXShkQBhBbqHU8ML2Gw2uyBSO4YZmIEAAFLN1g4vQzgpO7YzScmRLAQAOKmRBfRAd8OySPdgbmAGm81ml8U7JTO9EzgACJfNZaZyuQWRjJ6vMpFo/oE0VmQyBwAAYUUmADOY0fO4NxoeAAAgAElEQVTNQ26qPzOBHl/GZrPZrGBkr/tejpO3YVkCiwtIWQILKOwEFgeAnZAK7kzDkc8B8Hg8Ho/36tWr+vr63AtbxDZg5orvxdo/98KW+vr6V69eiYu1tbUNmAUEAMLkmHsFQlRilbDoWW6G56YYs9XHbL9KTWALUUChpT52/ymz1cccvs5K53YuJUDYhdu/OmG2OsZqa0psKdIzg09QsTdRtDKnElvYnqtjnMOve26IMVt9euOFGj7gkMJfrVaf9Nx/1mr16a9LRQL2w6+/ijNbfcxsw8W9mVwERI9OnzdbfXz7H295hTccVh9zPc3h/3HZbPWp7dGXnVfHmG249J9rtzduPWG2Os7zQj0PUIDmrNNXnL2Oma0+7hp+924LCtzHm71izL66W9ny6tTXx8y8rlzlEg3NqBMMJk4gYPkVQ6Z157a4OTGXL1i3fOG65Y7M5cyIK0+EQ7u24do3UazmQUs2XtsXxXozMg4bs77fvW4B082JyVwXcamgGVBovrV7XUipcPi8CUuOfr7hxuu/uoUbsr7bvW4h082RyfSMuJTfAji0OX33ut0lwoGvrb7i73nqqUB4f6fP19ktfw5vgqfRfm5OPpEl3T0uePiNj5vTNyPtr+HTAQwAkGj+CWUIhxXj72LISd3rpE0PzOAiZQmp5ewEbwaNRqMxvJM5SFkBGwBAi8FkUAFIJLq/PzU1JoML7ORItlOgizY7I6GwOjXQiUaj0ejMGDbCYXEQABLN3ckQoM83+QyZwYyymGQ2ADcjMlXbP5DeUwApiE+tLohxp9NoNJpTIIvLLSgjuXgbFiQUcNkJLO3gvXR2QgG3LDkVXJg00sgNQHsX3r59W19ff/t8gJwcDgDk5HC3zwfU19e/ffu2u8ygM8mWzrrqvNJvfm4SdHkAAnau5+HyKgN6RICts4j9zb9/z25pK0248d9H7YvXLwxzhkc8AABU0Hjk+zvpytOO7Xb9ekLTf7/PuCvott5qHt94nlqsKr7L8wpw37Ui3k3pXsr1vQXib9gKC0VG/wlw2DChfu+3ucmiCcEBTl+avEk89sv3T4Dm4bxBvf1a9G++0ZVN6tMimFoEFADeFirQY/8z26b15ZmEpsUB7hGW7XkprLwWqLv6m19qw0RnhwgfY9WiAt/vSxsoU/7tp6taX7DlwNXwavl5fvMXU+TNPD1u7jImY2Or4VA8dd6+hLTTP6edTso4deiT56fCM18N5VpB4/2CRsGgPqWw4X5Bo3BEvL1OjfqxYmZI0oVfMk5F+Spd2x3Dah6aFyuDN4C/uoVfXftBLEJKxqlIX6Vru4/eedPXRx/EC/9zecbjVUT3U9md77WgIr0U/sJWkpIF1DPazgj2T3WJCXcyZLh7M9y9g/3DafS9GcGRABSXhLJkJxIAAMLhIFRtYAOJRCJ16/BAWnhkKssphuMU40QFDgJEx0hWBlO75wpSBgCJKk1HU12CXQIDE8pcDCNZtMDIvuN4A+/kshixUeByOKCtTWUztSMTUpMLwD3eXTs5JiE5uQxxiXkX/d+rdQQCQX095/b5AIc1R7LPba6v5wiFgiFUAdCVZqU+w25j489bUtJPO4sdgPanWeznMD7Mb5arGs5Z6fnVg7XJ7De2pW9Bnb55waRJKNXzF3Y4APDrcppA2FTg922BuE8KX+JsdfoF8wAmzJ7pajKeOMHaKuVm4X2eYAYAgO3yGa50kqAkNb1Vfl6AkyedBGaQszkjPevl9s+1N2+flv6vh0UilQ27Z5nhQYADAIL9fP1JOk1GSpA3wdx5isYbM1UoaucL3+Skc0Gd/m/PqZPQKUbV7BXp5XmtU11nz/131vmgomZVy/n/nq2EhVRHRCXXjaOtra+EQMDjcIC+KT2176f0ihYgUKd7b9m8eGJz9on/HC58DSIYN3PTt54q8T89ePW8PPCo2o+euPgfjtx6LhK2tqhYfXFwq8M49o+e3zVow8OK8cvs3nQV22RBGB5vza9a8eMmaKoADkfQtPcMCS4V542Iaq79x/O7cg5QbT33fuuoXXPFfzdv5wlPIwI8O//Vt81bApu7eds0qfRCWHhmHShr6kMLTEYBWkqvRIZfK28GGGfuFepvURC6o8DzRKg5rvSoZ2DjF0mhDirPft4QjQb7N+z+7rW5BremtbkZPyM4eANdebgt3PqqFT9ugpYqoChB28HzX1CKA0ABRDXXwrpE+CbMURMVPkv96WB84WshKJs4bg79zKK7X8Tv7J/W+2q2s5XvZVYJJ5sSQFSa+dRktlHzcxQAJ2zMPPzD6ZxGIeB1XTbs8LUi3Nq37RIeX/NING/PUV/R+a7HY4b3lk0uE4nvNAkgxQOgalPLIr3941kcBAAQdmp8MseQYUiluTuRMvbGlCEAwElg0uiBLKRv8Mg9kFEQ7B+JMAPpJABtJxdDVngkiysO4jBoTHGIRwZIjEAmEr83PJLtFOyu3dslYTK4yXuT2QCAlEW60JzCCxAwdGeSkvdGcp1cDA0Z7qTk4HCOi/c76X/o6A0Eefv8+fPfT/k9f/4cQd72OStL/0tMDqjO87GzAe6ZdG7PoAKA0KtMz/gIBQUUDwCAClEUwMhjVck5v5LY1ZknPTbooN01d1MAEAjb0B67JU5UlR+Pl+9Vf89veRRFEe4bPgDA20fVrWgnU/JEfGcZAp5IQFExG7156wQBRVGhoJHbDgBvnj9rEvblCqNDpELurdCVTp+5OX72idNXxzmzd4TOoaLN978/Wm6/60TS0dM/rhDFR1+rf5YeW2j0bcSJhKh/zWt9UNFiGuAzfZzJhkj/aa9yLxVMCDz9w4mkqCCT0vO3ngGgIOQ1u+y58OvXa4M6i1kQhs2b7ic+zq9ivJZs/zrkxKVUtpLtzEkqKArQ8grvEnniwq+7plVc+Lm0y68VP/OAAuB7eIOS4/vyTEOjTid885l2Swug0Fzy4+6batsjTicdjVotPLX7UovtHLWKvDoh+iLniRCesyoEwCm9I7Scro+CkNdiu+XQif87FKCUFZv3evgtPPETH+dXMZ4fb//X7hMXr7GVbWcaqaDQW4RLJQKouXbwPH7DiaOnk6JCbAsjvy9p7n6Le578/nTKBJUpE1W76Qh6H/DjZjqPK02vEAAIyn6pNnIxEb/7nF++O1EzJyzh6OmE7dPvHY3KaUZB1MDR+CLh1I/bdYokHg9hfHQqZ2RcDeQBAC04NRn8g90N178QAFBMF3nHp+6lk0gQkxru7e1kGE4CIDH2Jkc6kaCs7yg+0Ik7t2xvMp0EACT63uR4rjeTpg0AJLp3QjxTG1IHsAB0/0Cq0SbOrnwGqa9lSUgu8/ZnaAeTAKgukcl76SQAQxcm9ctwegyNBODiRP06wf0d9b+U3B4EQZ49ezZAwGcQaEwJ9XjolsgVt7YRQ29C6uPwY3dhjmJOQp1QyXCVgSrZShFSy8/cMfbAP/xfPYAOgPoEWwqcSbmXbDKl6Uzaf5uMzx+ZbyVl3TG8ZGUfsZoxqfBuHsgvnqFKBACQBzwAANFgij2efS0u4zTTELLu5oHiOgcqsaXqm8PslzrGS6HyStzvVy0/cR6Ie0WbmVRIebjvjOo6nRcn0oUEM3Mr5banv6QdqJH/yEGzKPtRUKLpz+u0iNgSkuEDT533zYnQycDJjQo802I/n6ENIHyeXdBUXrD/i/MAAMJmEXAon9ji/xX4dYP9zFnzVnjZUkH4vOutmP+vb588SL12qqKivIAnGicUAgBBnWGuQXhH1lTMvX488RnnyYOCRw9uxXwRa7DtxFfTAZTN50wfBwATpmtDajOAiuwaOIXlKjN3mBMACNM+malZAULOH+Uqs/fSlQFAzf6TaYfjymHLdIgu5jTiC5RdVio/yHn+wuROC32dLgAQJkynUwGAoK1BELYK/zQRXtf8UVXzPGpDIQCAsLVFu7plSLWXP3tjOlG1+/eIGpmgPt1F+Vrqc6FJa2qNwSfmyscBAFqqbjXqrp6tRQAAQ+dPqL/cqhbZg7LJTFMVIEh5PAC034Ur6bvZaLsEJ7sES1PQCQX+fYyFeCKgu4hTAhftNXSPYTFjJEu4pHJdZLJj6M9CJW9AZbK4TPEvp+DksuB+pqoM7TxGj2Sjke/8Tkod13cMuPKrvwcAvUbf8kYuTp+nJ//UBCiKEiY7xPi2704s2HEYVHUM94TMs1FWgFWL9zSmRR7+OV1f10YHqgBQvGbgrtmN398LCWMTKDqBXzpY4lEUpMQQVPVVis6k/cRT/MjNdY8lAS2SsGTKRntCbNFjBQcOs0Fp/KrNzoGT27OjM660qgSGOK7DKRX962HI4XKrRX3H+N2/UVAw8lgc1Zp+ID17q0jeyNLqZICpyrP8LYlcVct5Yf4TC3nnt6Xe/J6xKngyHovqDN8HR1EAFK81e1Nw4Rc7oq/Rv3FRQwF03P4b4W0AKAotr7mompIqPSLerfTebVbWd1//PCvkyObOsamwImHHtkKjNYtnzV1kAU+Odh7GEwio+GHpfhiHyRv37pGE124+iw1MZi0yYbjMs94RmHDvtTUe8AQFFEUB1x1N7nnaBW8AcF1PTicVgVDsS+I7/ctufkCIoigQxttbCX+6V4AXmHnNg+Lv7tyt4Zp66RCgHkVRQvdr1OXvDkcK7p3oBO5SHxc9E4aLyaxF86bvCrxw9/V0IuDxCr05Fypb+UVGzVRGASfivhIojXudKuazi1tUxl3Knr2hTVQte/ZmBC0sbg28pq2D8sX08oKWOjMXIwJPfEehxH0FKAqggKJdLQ8ooDqfREV46gEOB29ecnHj0ZFxNbABwFYCv0MVADgcUX9O2rk5nZFEvNaXUX5fin+jCpMc55+fMx9wXXFGFICo4fHlGo+uIxHi4/qWEVGWEd1lcP33GQUAUJ08M+YbF2J3GcuPH5zrKU+ebB1xyDpCogb7LeuLA8S/7VLO2QEKgDMtPis+ohV63C8UBcDBRBeP4sXiq8jO65c5+0jwoGx9/qy1+Lfzrg3F0nnD6FB2ZOz6rUxnbrAOPHr4D4dvzWaZ845eKFwRbKX64ubeDelzfvR/tS8GF/yN52rz6eOqv0htEuEoeACRCJpLCxsmr/h29UxVYfWlI01C8771E3AgFAJOZbi8KVGFj6IOJGmGLp+hTXhTcT+nEm+0XgnH6YqJd1NVqvKromctMAlXnX+7XmQPOByIeUO1Z5iKDqdXLN9oDk9T/3gmcsNrzzBtOXalwG0zXfnVvdRiVasVKgS9xSYNO5PA/suJ+mD0IuzCixlBBgRZrTQcqjRO9OiH8CTN0OXTtQktlfezKvBG3koop29tVHMr6uGU9BrLpfqiosP/jmj2O+LdWUb8gg14l7Jnb96p9/HaVs6qSScOK5kGG+ChCHCAgrKps/qJS/cbbOdoQnVOCs/IewJB2MUJYQJjKu/H84Urgq2UOTe/2ZDucOL/lmqPhCvMAPy5ewH9Fbv69SQrYLsbvoe0Z0SMAxzFYfPyC15nLjw5tGH75vJv4nyXiPB4JYuALxfpTWzxNvnPjkAvIgDexPPf05XxbxnmjREe326NWT7rStxm5s9qahoW5vpQ3ygE9Z7ngaAzy6wxgvktXNjtPH5YvBFMA0I2RR+J8lzPFQKM07f32rXJHC+s73reuj0AtRmfudyMWrfxhKrBdCsdPKAofoKYNzQx5PM9zhH7dngK8JqTKVQUQMXMf49zRPgOTwHAeLPP9i+fREBBb7aRkNXy0QQCAXUwhmwcY4oygAjtkaJnJD6sFsZP2bx705HoqHUpXBGAmr79+p2bzAhCDirpoqMogP6yf21ujAjc/DMKBIN5QfvNVV5X9PYA4E/o/e5ggbr1IsrRUyZbjQkg6ryjptt2z4rvd3gkAA6vu8gvyF4JTe9ueaVZXwaU7Y/b+LEIT1Sy2LzdRfsddwPFVXFaAaC0oMh10ax/uPa/ev2uro7i0MtPnjz596y+H4RB2tr6DNoxilGMYnRMUVLXVvbYBnB/lhuBUYxiFKPv4UpgDO+k/bEJToxiFKPvx15APSEgTHePDH1CQG9FbdgThlGMYnQsU0W8Qi8DgGG00Cpsw54wjGIUo2OZKhEwA/CnGQBslgmjGMXoWKbdBgCbAxjtOQBsn0uMYhSjY50C5gH8KWgRirBBBkYxitGxTJUJeMwD+LNcAGyNK0YxitGxvQq9tweQVszHVPfIsNCCLPnfZoEIaxMMGDCMZagQOz2Anq0gfJ21sHYZLmLTX/Q5kvvkLdYsGDBgGNvD1n4GQBbu3Lkze/ZsrMmGDuepKligEaMYxejYpOnijx4M0QAMqv3vx9pA1+fUURSd9UX+P9wAlD1HRtArtAlKKKA4wNVzhZUNAn5Lm6gdHYPSjSfjTXVIGqp4MbcooByuaCwzPGK5xn5ffNiyjB0pxlp7dvNzJe/VSOI/SvhhGICBPYD7sTYzfPPEv0Vt7QCQHTnVIbDkn2wAZhqrDtcu/1HB70BRHMBzrrCwumXuVDUTbUUiHjcGpSupbf295PVMYxV1FYUOQF9wRflVLQ7mVNMJSooE3PvbawXsluxHXBuTTrnEfVHwfopWwG7JLuXaTH6/ZRk7Uoy19uzmBwA2uUwc7uVnshpGxwPo0v4/if8rXl3sEFhy69AU8WfTOzo6OtCO9vb2pd/U/3MMQMvb4X3BSFmR0L0/bFWDYDF93CRtxY4OaO8Yi9JN1VMCHNyvfDN+igoAVLwQLKSPG69KqGwQtbV34HA4FEXfR6qvoeiAg4Kq5o9MVcR9UfneiqavQXKYSn3fZRk7Uoy19uzmR/xKNr5qGfHrLN0AlNfwc/7oGsUjbwFA/PVfMyPFeRL2QMbu+T/N27EL4PPu//8colFUVGRp2bVnTlkwzexAeed/KKZLg2Nigp20pdXEzQj2ZzHjg+mkUdJeo17h6EG883jTG5GxtqKoHcbsm9mB4ky0FH9/+Fq8t+CrZpHpBMWiWgEAyMnhAACHey9pPbfNVEcpq4QrlgsA9/6KVs9t/wBkGTtSjLX27Obn3dWOdAOQ80fJ58t7DfybmqGtDXFdE/Dgt57jnd9KFEjNeznc+S9RUSQSNTc39zpp4HenLIZBAkDKEvxd3N2pBSx/Qyn6uiyjgMMcRS076hVKQ3vHsHfmQ1GAni9FQEcHCjgcOlYpEY8Ttos/Wtfp/MrJ4d732TEAUCTg2jrQblP3Xov2YcgydqQYa+0p5kfMhrB9tA1AH4i1f9GTl73mBo5PAAW4c3zCABfqms7SM5/Z1tYm80tbJBozJj7Z0D+mzD/csCze3zucxUW4XKAHJiQzywLD75ZzmUxaaoJTRq9TwQwScJIDmYHJbAAqPTA+IZAOBTHe3uEsLgCVERwf708rC6QzOXRDNpvD5VLdY5LDDZO7K0xmssOZ/jFlCIC20974GG8akuBEjyFRy1gIM7UgkkF6l7H88KhAhAJAR+dXogAAOtCuzyGNSdozAujqVnk5HIqicrj3m0rK1S3meyrahyHL2JFirLVnT8AZQUffA+iv/Xl8IfdN300jZm/cCyAvaxz8JONhXfnPepoz29sHtFAkmoshJ4HNRTiR8UhgRhlTG9gxdEZ4RmByZHBMWVlMgr82y7/vKXqyd2ABM7XMn4akejsFJ7iHF3jH0+PLEugkhBVIZwYzWN6AcDguGSxvbW6yO21vcmCGd1eF1FSmfwYztczbkMRN9WZ4xzixvAE4bFpCWSqdCn9TgKhbBQnbZbkLbY9+/XVPYmVhKwCePH/J/H1rjTRHY4NApDzV6esS+u5tMdMVBi2v2M1t13OIw4GcnByKov2o4Nkf905nPasTAMgrmdvarJurTZVe8u+nICFXd1/82aLV3/5lXwZh3dZFdqqjKc6wZBFy8vb8VNk6yfbbzyaRUfRNwbXga+C57WOGcr+aRbwHN+7lGXy0aarSyDkU1h747s4rm0X7F1AJoyhFHWvPKXbXila5cfomn7lbW6gOIN0wenBYnKTHJFzqNVoGso3jsprMUwjt3wF0rdHr3z8rBCSO+0//eIPkseCvdknPC5IaAiIq6lnrNT2Bjo6mzkiRTCAIAgBAcopJ1k5NjQkvKGBlsLkk8VGQfgopSy4z9HenkQBILvEFLlAWTiss4LrT40kACMJBaGwEgGTo7qQNACRDQyrC7akPKUtmlbNYLvRwAEAQDiBsxBuASncfDe2PynDdWMW1DAu9/sdRQNGuOYDOfKp2kEw466ZCdrb/yUqhueUuu3Ev8+6cuHwF0d947COl/iWHS0XtgAJ0dICgbfDyXWL2mCx5GY9pe0PJsRvPWg1MPjVXfVlefOtO9kntT7abk+TGpA3oLRfurxFNzWTap3g5EyU5HPwJxmxossjjcADQ9jT/UqXuRhOiuDROank+Ozn/paKuHA5g5Bx2MSQvJ4cbbSnI5lZLDOTevniW/uDxkXPyezdYqcuQrmM4PTgsTqbNm0lobn9bWXz5cfsUO/pMihxloprWRMtV7VoU2VeNoH8HwH8T7nzJnD1CAyBWlWmJJ8RjfwB41SKsqmqUzAuavfH5neMTZm/cC2+lbSf3tpVE1ZUnkJ49fTiIAeCWZXC0nQypnGQmI5DLDPZ28nailWXESxSReqpHn3PZbEQAJANmclk8gwQACIeDaFPZGQMpc9Pg1LJgGgAAl8MhaZOQBCCNzsi/vUPKyPkmqwxwuPZ2qZMAOMlvbQOAoE36HKyAz3sDoGNsvMBh0vhZOvop5XwSKmpvf3b7RnBc6cNWmGBiGbR9/jw1HL/gxvbooj9aAfDkRT7L9znhLm4/GSHSnSGqe6jhdHm34f1jVw7eed0MxGlznA5sshjXjgJAXU4qM7L8YSt50ecrvnFWI8mYBxa/AL3mAHAAcnKAon1oh6CFB6A+ceIs64kUC/UJuTUiUru86Nl/Dma/nLEw3HW86Omtbedfz/FZvuLNjW0XW+jmyk9LX/KJ1DkfqXPuPn3cIm9k6xDoolF76X8Rleo22i351S0wXv8TmiiTVf8SyHOWz1tnptT65F5kUkWVAEBemb7IyXemSv2vP+8vVJxCbX7crDaH/DKr1WTPVht9/JtrUb8lKUw//oWpVG67Z+N7xXmHJZo82lSc++NvNbUCIE80WbvKxlr1zbWo35JA0whpqFU11Gtic6Y6f7dcEy+sPXTwdq3Vwh3jiy/ewitbGE5QbXuaczs2s/5lO5AnmqxfZWOhKihOzTp57yUf8HpT6Rs/MdHBt96+9Hti6Zu3AIpa+mtXfWSrJk2QnhHr0GTpGnj8kZK/YCtjPA4HgOLk5eRwrcU3sk/efckHvJ651cYlGplnHr0EgJTksFZLSC8C109CrYQ//5iaiuh//ZW99uOb2y62uGz6ZHH747M/P8x7KQIi1W7RR2utyPA0c+v5Jj0DQm11uy3TWhxBb392/9uTj5uMZx5dM2W0pKCYGM2lKwFKs1b8JfR2xa1GS6a8DOmk9+AotOcE2uQJOFxTe8Xlx6JJU03m6igA2novpeh/iJnFNIXfIq9lquiatj0vedkx3tTMUeHZtRK+iKK71tPhI7X+z89A/HSpCylaqOZZw5ffXQnftnRgZSU3aORHrP3fNAtk1kEdDy2tUv4AyNoGL1/XDmQAkLLk4MBUWiCThrCTWSRm+F5/poshJ7VM7BSI3QMpp0g0dxo7JpUNANyMQCf3eHBiQGp4MgcAOMnedKfwAkRauElcIYnmTufGRGZwAYAd4053j2ePdj5PL3qDVQaDfaWzQ6JThe0gaEP7U5yRwxc0+ccpl+d7fee6/07JOGMXC2VBfeHOw6WIg+uP/1o0q7Eo+Iey523czBu1jcb2kf/+xFOdfz3hweNWtB0Aml5pL3P9dpVx86Wk0Duts9d8cnCNRlXWzfC7zcIOQAHYbKVVm1091PnXL+SWvJXOg+SMU4fEbJgcTgol6tNXGshxcjOD/nP+q9PFtVRd+ymqcl1OhLhMlysNAMhTPG2n3/RJAm5WJn8Wc5GfcXvVvcLHAsDhAASv2+gf7V2hAy9rkirUfPwd7Ej8rFs1r3DNhQ/q+bpWgV4Oi6ktBZnlL9pBDgfQzucbzvBzn7Foznhoqct61SH3siqTB5MYurK47S/XsEXjPfkxqUZE/2iHl40Ft+LHpKo3YmF5fHUnxucfT11qKve2oryqA/emsuwxkD5iqImTyOXkcO3V9yJv1YOFTeAKU/VnFSdvNbwquX3kXovFUqcdKwxEJXk/PuC3PytILG0xXrrw289trEnI4+ctUnmTk8MNSxax7dOboaPYUnUy6yWCAwCcHA7elOYeudvFQOkfPxaiC130yQDjZzn40PWdxkNtycs3rS9LeACCl495wqqiJlDWmaVUf/bUgzxEi7mCsUK3JfeX9MTnHXI4ABDVtul6rrBxnSiHAwDukx/PP+ZomYcwp4yiFIDrPKJpSFYAUR2vXZZ0sh7O0eAEJ4cDcaQe130EOu+LA2hrejvNfXGgFell+aNMklWIlymFV5dyj9v/+RmUn4ERHHVlhHMAbW1IVX3zm2YB901rG9ImfYnAwE5ARYGOhV3p1XjJoWInqo/NVjwGAEDUsnIJTE32NwTQDgw0dHehpRpqa9MYToZlZRxwYThRA53opMxTgYYevU+5M+MjM5hOhnvFc76BVnQkIdjbm64dDEBiBCfspZPKpNiqzgpZBfEJTKY/TRsBEtUlPMHbEBDWaNoACXrjbnmf32LMn2Xap+TgkT3CuOUhmx0rKm6wKu/cr0iMZ7Oa1v6oX1ICANevfnFdXIhdL6Qt3Lx8PKucdavoThMAtHQuTFCf6ulMMwRe0kk+qNtscDExBJOrLkAEEFQAAFgsn73QUmGCGTExu+WNCIAw2IzFoM+hAmWB96fWddX5xXX5Zc8zf6svbloc5iT5nEmWxlvM1NVRf61NhKfqk2111VoNFaGy/W0bKAEAqD49ahsAACAASURBVDlaqOtw1ShQj6eb0NTl+VTIbUZEoPLRSqfxxXX5f1QUcwEAaQVxeaqr02RbFQDE3EI+O/+PJidq9UsYv5KmMvhMDG4IfSFNtBDdp7UAcPf2obviQi+a2sYDAFAmLWVM0gEQga5ied1NNs+a9RIo5k7a8lDR6TfWlzW8BfJn8ydPU4FptBmg0F52tqkNOnKvZOSKb1jBB5q6DtQUX0k7qKVpYTLZyWSUZBFnZJtMd+VeO3abdWNGF0sFfRhoobio4AGUtNX1VRTxdGXIeFrObq8H0nj5lnx2fT27g0ybpN5Umi+Qs1jJWGBCAEPI/46VX/B6JQ0AwNh+2kc0AiDVAMAvr+ADTGKY6CvAKErR3yGXIZ30HjzoovancSIB9Um2uhRoIkEhWM+coKMuryNfXtks5NX1fX4AJg29VqnqPjhqID9AetubGSm6rgnofzxi9+f9D54PCuoz/u3oDX33qyTJ6AotvAwNlzI6pwemsgP7HAwvQMRF+58ydI9huUtezwhMLpMsRI8sY3VV3fWT3l0hhKeWSXJBYmawRz9B9KaExh/KOoCByzxPv7I/W4EZ+DFzLY25qv777RcS79e91gcA4rJ/+wWbKLxp5IEGRVVYf2TXhdMiXY8lpksaa/9b09XLeLJqd12iNhACEJDqR68JOho6AACgglcAAAJefqhGbrBXof6PrLgCucVM+wUukxbMbzodmZZZ8ZznRO5R/W2Si+bk8d3Po4IcHgAU5AG63Ed5+e4F7HiSfFf2QTsgTRdi0m62ac63N/io+cXPnJ7aFMW1kSYspuEPFRf8rNCiYEy3UBmiXLgRiPZKFwDwdp8v/1xXvpXbDFQVJeCVA4ACSUnMuS7tI+WajIzC+megt8hEB6DPCklRGwAAj/O8SUVNBADymoFB86eR2nncdgqVAAA7t5Hv/fH0XkVD7u3buez2nzZMendZutpc0XYJ/UbUg8z7AEAGACkMNPVMburQdMenP7mSA20T6UtJBXE5D+sFeOuZavg2mfEGMkni0ZKnWlC5xakPyyxm0xRg1KToAo/DbwO8NpUgSzqpPQigNuqcSGtqAl7cvCCPV5AHAPGzLYK+z8+oaKEBbID0hp83e7Zkvv8AmL3xOfHBg7dvB9oCU1FRcfr06fBPQnd4f/4s0xus8uGuA5AF1QnArizffQg2OOgQa0p+44GKmZq+gelkyLmR+GCBm8LpyIwHNNervoL7TaAzb/ZGB4WkW+0gauuM33VqUOXplmS4XnTkuuYCKDnwv7op3p9HGowk0tXXses/qKRC/bOaY/E5C2aqK3Ge3m4BRUM1ioL8eCI8ZT99yG4pz+F2szVCIK/LeUCeMW0pXf4qq0PSpeiqV96YoUsuqSoWyFkzdJSGJtegfSFVNF1t0IbCezfLbO3hWkJhpe5H//WmQqclE79w6k505Zu36zgw3qeXLZLXoWkq3q25klqiRGu5eqWi3tjhGws1qGz4OaMWr111+Eqd+sef7KQW7E2o13GZy3Q3uHE2OxMRjoosEi7yZB/nit3p4lQaef1+DOw1xAMAr6L6oe7kadRJ1srlN1+CtrOOhcpTuMJ9K6/7kbY8vs1omnxd/q+sG/N1RQX3nwJpPl0NjwCAvKS+Ic+c7Ud/uvdY+RmWeZg9ZbSk4FU8vQ0EUVP9jdstQDF31ZaHJqnSSe/BUW7PYYKibdDn+TnmbfDu1Q7bAxgW/mnKfVAI23upRUcbWmaeeA4AHG1oPWO9jl7Znx29U+ylGwCzRVFrrodfLv/xXDkAcfJ0p1BvI6Ky3rcbG/edy/niEIwztvzWl6ZKbdno8GD3rYuuLA2GsRLU8+t7hegUDFd9sof323//dz0LiFMdFu1xpnQFIoaHjsHeBCUTxs5FrLiMmmvXawDw2qZWPksm4BXalzrplF+vOHK2wYauqfji9Ts1t4ruJ1blx+6nbykmW+iSgNfMae7rNuO1J1srV2W26c43JAxRrkH7QrpoJK2Apa+PpRZGngPFiUZ+Kw2UgNfnQp2Zpnq3H9Qb0Kx7D+/whrZfOouOZRQeKwfyRBM/dz1tFbXNdbfP3M0+BHi9qTZ+dBUloK+04F/4LW03gMJ4HebKSaMiSy87xGDM/yPtJg8AgEL/qA8DABNstR5eK3nws67ONAbZ1gR/s1De1ESFQjLQBm6ToZG+AoCCno+3VVxyacLPdUCk2q34aKWuvNQHDK9tzjR9ciQjD+znj5YU/JLCuBIAkBtvYLLZfZqOAohkSCe1B0e7PYcbGqL1eX6GctHbtk6O/r25JyTyzZHk7oNvZfpkEh+Ewb4HMALEpr/o80GYtGK+zSTl/iXFNkDSAPSMupQVCtlvJmkRAYWbxfztS3SrXnaMZamNxst9/2vdfAsy4ODmw7HOcGvTi7KK8jPX62DGwoNL1PFDk+t96YsPW5axI8VYa08xP4CCp9MEdqOUAIzYAEiahG48qGru1lrYJyH/hPiPOFTYmzra0MiqSrLOgsyNlcZ4pOs94JlXlnfkep1Iy8THSR3/AckF/yRZxo4U70t76k/UlKr9ZYaA2C/+ok9ZVVUUl5fm4fEKBAIBr6CAw+HaO9qFQlF7e7vxlBmGxubv/+OKQ1EUcH0pnaYv9XhX9B/3fr2rYv7HPp869kt+sh+2XB+O3nz/ZRk7UrxH7bne3W4oxRRG/cb1Twt0JtFlnWU/fVT4IOuj2faamlpEIpGAJ+LxeDk5ufaO9hcvOLcybsorKOgZTHmvn9e29l65nYNT8WqADhTeq+30xYsXPkQHDuB964sPW5axI8XYbM+37/AZ8tEPAQ2g/QHg7u20xQtdTYxNxqmNf06qL8OXqaioKCkpKSsp6+sbuCx0Lc7P/kBevOHSUckv/ktHQ/BhaEmpcn0YQaAPQ5axI8WH9Gz8PR6AAHkr6hCNq1YHAFwHDpVD/+/Gt+LFkng83u2Tpe0d7R/OWzd0CtDRMXhW5VhDx4foAbynffFhyzJ2pPiQno0/xQAM7AG0tbfhFfAgAEABxaEAoKGvOcvKBgAKC4oU5OQ+gMYtrGkdwVVNzQIA0NNQHPupGlUvO2aYqOVVNQOAgjwuNv3FB/M+kAgKeVWdm4i876J9GLKMHSnGWnuSCAoK8rike41/vwFoaRWx8qV/QWxSb3vQJmp7/ZobUXXwrN65ce1qq5tX8zjc32quAgCRSHj58hXa0fG+K5EFdA340KGvoaivoQgYMGB433CjoHGUDQArX+YXxJLioiWPi0Qi40nG48epLcEvUcarkIhEBTt8e1tbW3tbe1u7kpLS7dxsrIcwYMCA4S/A6IeApn+8QbyPdFWtlE9WitM9ky4nzZ/vfC3nmkBi038CgbhuzTpRW99Va4JcT+c9iDmFJwBEoBcQceBTjQeezt8iGrU3Gu0Srx6kXtq2Ne7/2Tv3+CaK7YGf7SsrSLsi0L1i6SqGRmlo1JZGLTRKpQFqiVghWoQIFYOARCsS7eWaK5efEUQiD82tCLEWiL0o5Z0iSAq9kgJqSkFSqpKCXrYgsC1CJs1jf3+k7xYoSHnO98NnPmGzO5k9Z3bOOTPTPQc4N1DJb3w+Z0zMb7nJysJn12yaGv7dtKenu+dszfnpuZHFUdG1R6tOnIh8aurA39bu+OVodc+XvsydFAeVX+RMn2M74YbwhAlzcyc8jNY/94ihf+Gmv8f8skg26fvsNaZnL9Wfb25gMRgM5hYyAADg9aKTp+uOnjjT/GCeyfjVavOjAyUhwcE97rwzODjEjdB99/VFbnecZAAAlNn3BYeEeDyekWmypKTkGdp/NlyKao+TmV8XJEdwxS/L3lg76PMoVPsz+Y+S00PDkW2mZEVU7ibT4PDj66eNGGN4yD5zUu7kQvkbuRF983ZKP7JKI2p+cledePjLTf+O+eVfkpRPI7ZuLe57YunTo5b8NGbKlhfnuHOsJcPo2u9mPK1+84GduU99NHf9kJcNsU8W5/X7x8ZnL2M2Z6i4G+5YGAzm+mRL+ZkrbQBaZhALvEm0MYNYYF/Qs6NGPpIgMq/6svr48QiKOn2KS0yUEgT8aP9x4/pNAECS5IkTJ+rq6j54X9crsk+z2snwh8dKIwCAelAR+cuXh9yTQBD71IO9AFDFlu+pocsHhwNArycnPDrj3e9YEMZM+Hf2+oSXi1+ybnuUAqgBiH7w4WgACBdG9D468G4SoGcfAdriPrHH5h78j8dpAAh/NGuoYEzxUZAKn50zOz9JvXTo8oNDe12OMPi/nqERl7jEJS47qbziEUDzDGLDM6d+sfjD2j/PHT5a/5KvwL6grwvXFxSsFN/f9+7eUVREREhoSEhIaEhIyMMPJfj9fr/P5/P7u3bpWueue2OmTiYb8tobs9r5paa0NKSg3aaQAAC1RytOCCJqD+w7AQPvBgAAQePZF0j7JQh8hU7srxaEwy/fV7mHUYLLEAfuYbj8a+XBH8uxo4q54twviW311/tXbAoosOp78nQdANT+ee70udZT+ZnjJmWOm/Tm9BfqPO6z5/48c+ZMRETEHyf/iOwVebz6OP23v506deq+vkJ3Xd3aDdZW9qX2u6Vbjg99KrxifV7VA+P6NQ3KZMzQ/lxO3o7JsweHH/9m2XekdCoFNTvenb5z6NfWBz4Y+cbnT5rHn7/RPRMeFHywbDu7aBhd+93SLbUD5kSBe/+cN9b2W7QxZ/XzLxsU1pmxl5wnkvfzQBCAS1xedglwf/8+eMDCXEEOHjjCA9Hqr/evmAEIrPqePufVZs9s9P3bJSgoqLa2tlcv+vDhX++7776DBw/G9u/vqKi4//4HgoIIN2on96QgombFc6L3a+Fu+cJFChq+a7IA0rm5GepXh4iRgIyUvvGlRohs0yfZHs/d9HBM+Nw3Vg8ft+yJvPO7/HEzjW+8MV2W8A8QhA+YYMyVQtn70/PvfndXspB+IOeL4dPnPLVx9gOXagKwD4vLv1gCdKfwShLmStPm/V1XxgBcUgaxkODg6GimvLx8wIC4774rSXpscPGO7Y8//kRpaengQYPd7vaSD0dNzf36qabXLj9asOfrhs8Rgyevsk9udq70I0dJ/VVZ5vIsAIBt9nqPf0xxyZiA4RhqLh8KABCbtWhbVrOrqZnbDtefrCjYo7g8ITe94QeXuLy8MjgIv6kXc6XHf4BOWQO4915Jq/3+F6CuztOlS9fEgY8QBKSkDA0iiGHyEQBE8uDHPR53+wYAg7nFCMIGANP5hFzl34t7UDr11Sntvk+VIIigoCBxXELreZrm/v6NEWbheQxc/tV9GtgAYG6YCKDjZKqmZMKUm1zMePy6ActTez7L+7K4qtYDt90VOyzrefn9t/3VOt2/57+xkp4148lel7EGgA0ApjOc087aBYRpEjLex3LDlbVb8/KdsdON0+/p4jm5d/X8Dz6PXPSypMtfrJkHHoDgL2sXUDCBDQDmikcA598FxETid3tdOvtrcQRwM5TnzrpCqV7duwBBhN4Zr3hp8s8hPBBE7Y+fLi/Ye8oDIXcmKCZPFFOEy7Fy2cpdpzx1rnNdRZnacQOJbe/+09GFqPq1S+qs9x88+ukXa/ae8sBtUSOVWUNCgThj//QDy8/Hz0Hv5Dcmjb4/5NDCd0zUlHfH9w65SARABBH48cLgCOBGFDLex3KjlXTKM/F7l785ceM9D/SVxEviH4ntEcZz1i8Kah6faRRHwKnv3l249Ls+2cL9RT/dNf6DV+4Nc+1f+H7Bd2zCo7znjzP93/tX9l2hNf/9uKBKkr1wMO1xfPqPjfb4kVDnOvfAS//3Vu9zxR+9s7I8dXbCPeOyXw/tHsLzF2tVEIENAOamWwPAYK5Lut43ZvacUSeqDpTttxeb31nVW6Ufe9t3VSd/Pv7+tLUA4Dnnue3nM55HH52cXXVgx7avnf87/NMZL+X1AECPPv3uCoUwD7vr+J0pEjoMIEz00nwR1P1+OLR7QnzvUIAu0dFdztW6ACKo7j2wtDHXC9gAdE4EgOdVbqiytuyzTX8Meyald5+4IX0kKY/HvTtnQ1nt056Qu5977e9DwgkC+D9ra8PC+cMb/vWviqj0RyQJg/pB1cr6aC8khOcB+HoHi+cJAs4eP+7twvMQEhrWsOeNv4S+gcFclQgALzR1AnhUvdHK27rBL2uMW/Yf9xAEnD28f9f/QqN6dIt6tNfJTTsPe4B3/77mnblL99S6fqmojX48c+Qj8aKQ3w6e9tTVz6gSBPB8KJ3Q62TxgZME8H86Vv5j+bY/gIBmYzoBPA/emlN//NmRXUAYTGc4p3gNoPOFjPfV3GhlyL3jssbnffn5G2/VegC63PWwcuLz/UNCHsh8vvLzTybvAggNf2TMtMe6dTv9pGTzl+9M2xJO9brn/rvgxCk3zwOAn+eBgG6DRz/70+fvq7cAkPekZ6bdxRdA/S4gIHie54Go+yXvwzxK/c4LvcMusgsIg+mECKB17yIOs+cAYMv+2klDIrGALpXcbdVDY8ObH9myv3awqCv2qXH5V8pf9x8YnpqIny/MFWRTUem9/R8AgtjhONs4auEIoHPWAADvrsHlXysxGLwGgMFgMJhOAkcAnRMB4HkMXF6hnE0YDI4Abijw+IXLv5wPAIPpDOcU7wLqfCHjfTW4/MsZwTYVleJHCXOlI4BOywiGwREALq9UGX3//VgOuLwK8SU2AJ2zBgB4HwsucYnL632PGTYAV57vKl1YCBgM5voHG4Arz6jEnrfOzW6vcKfHBhEEwfM8Lq/zcu/evQ8//DBu9mWU33///Y0ounbLz0u4xucX7wLCXAH8fh6XN0SJm33ZDbiZ+gA2AJgrOPr7AXhcXv/lDaqs66PZN1M/xwYAc2VtQOMr0XB5fZe42ZfdgJupD+A1AMyVnP/BG/dviPIGVdb10OybqZ/jCACDIwAcAeBm4wgAGwDMFVkD4HF5A5Q3qLKui2bfTP0cG4CrC7tqWJee3YKb/3v8Q8fNFQH4W5SH/vFQt9vDw7t163Z7ePjdDyk/2Fnd5pxLLpH9zQcf+7iqvW+PbdCovnD6gdswrO+Yneiv/9ZNW3ZcWWinqv+wAq7N+ec7fpWbjfbN7N/t9vs0u881NUzdt9vtw79BndSA9r89bV+hGfbQ3XeGh/fo++j4j/dwbUTao+/jr66uAr+rVBP70KyKxmurv3i896jOaW1H7gUbgKsGnVl0jjvn4378P3GfSd+c8nHnfCXZoptq9OdblUD0mfjtH3/++efZP//4Noda9vxzS6v4ds/seBk24O2iNZlR7Xzrqt6580gtD/6IIZ9vXxgv+Cu/cjOXl6SssATD9s+fCm97PgAQBH8dNBsEvdxb88tdgSNo94rdbhAAdE4z2m/D4Y9HjfoQssy/nPrzz983Z8PHo1RfsS1F+udP/47b+ppmHccHBNdUA0FAZ7X2YveCDUAncuqsv9W/P874q2v91Wd5H89ztf7q2lP/ybg3Zdn/Tp31nzr765LkB6btOLhAeu+oZ4eNSH88JXmY/ptTp876T538YcnYhyQP3Ct54KHxH/9wrE2118M/AAAe/DzfquSB93l9Hq/XG3KfYsG/U458vKyCB57b8eHTCWJxrDg2ZfIKh4sHdoNmxMMJ8eLY+OFvfVPt53lUsUI9JHaAWBw7RL2yAp3bqRow5Pkhwp4DXtz03/9LfTq/ys+tThMPeW7U8LQRQx4bMXMrixwfa1dW7nkvU7Xx0DfjHn91jwv83O5Pnk+KFcf2EyepV1QgHs7tVA0Y8uJzI55ISYp/bNSSclc7bb75y0tRFto9XTZ+fQ2Pyj5+blB8fLw4dtCLyxwuHngAngcelb7zxIBRHweO+Hke+EPzkx7W7UN+noeKBY8l/eNQ22tdh/InP5EQHx8rvG/AqAWlLh545FyhHiQWxoofe+bFpNjndyAejm2YmRYvjhXHJozQrmfP02wAQfSgjMiSFYdcwIPftXvloZjMBDIw0129QTs8PnaAWBw/YuZGFvzc6jTxiBdHPZGSJI4dMn3Zh5NHDXlsgHjIzJ2ngYdzFfmvDBHHiu8bkPT8kt2nga9aMuThZ0bFR/V5Yvb8EbHPr68JzJy3aQParf/k+FNG/ai+IV6vN7Tv0wbTR8/2aiVSb49Hnh8kOLK3yhV4GXNzsTesKwSOsF8NF6tKXODn+eoVQ2In70YdEmD1eu3wAUJxbPzwCSPEw1efhrYCbNlybACuOdSjk5NP5q37DQCOriusGzkuVhBEsCcHzf9i9bb/LEnd9ubbdoQOzskqHPDZdvsvu2xL6E/HfrAfXb8rwDzfogw8Lw1H+NC+Q6KPlx/hTn/z2uslGV9/f+CnA/99CxZMWVbl/EpfIjb994cDP5jSarbtq+arPntFXzvl2/0HDmyfUvOJfmctuGsqyde/O7nf+EQ3qH8Oofp49NtrNm7aXphZ+dpbO+lX3n9emPDWKtPwnoE07K4S7YRlfd7/7sCBn799u07//HsVPIC75ggxceX2b7/bPKVmwXs7Xa3bfAuUl6QsPxAEgN+15/0FNa9t/uGHA9++Fbnn2yqXHwAAlX38fNbejJWrpsQImmoLCqiH5/0ABBB8m2vP7fl4lXvKph9++OmX7a8d//ijnS5/1YpX9DWvffvrTwdWPVN7pBbAz66eojs+efOBnw4c+Dqz8u1XVp+n2TzwfYZnRpasPHSO59GelYcGTIgXAPA8sKsn645P2Xxg/4EDazIrta+sruYBqo9Evr352+++fZtYbjgycdW335W8T329YM9p1773M/Uo+9ufDvxa8n708olv7XAB4T5yfJD5l982z5o4JaZ82Q6ufdGx5eU1/Yb3DfXzAdH5uz2oeC6pV0uRuqq2frYT+iVFCwKjb7MamokdeN7PAwFE/REgCOD9HRDg6Q2vvV2e8fWBAz9tfp08VO1uT4DHWrW8GXgb6LUh5MFpQ2uztlWOG2TJq3s6XyiA7wSi9MdF4AH+rsGPEHl7jjphe9nB2mdSV5EAyHMc9f0NQSzZtiq9eZ9WOeBa3kz9Aw9NZcNrp/x84IgLIQAeHdq0t3Lv3lGPfggAyH2cQFXhk1PIfw5/omL4kGcyXtMN6clt2HxErJHf6fV471Cs+u8o/5kdywXiEQ9293ghsHrF+3ke+qSMeiDE5/Xe8diIyA83Os5OAAC/11fft12HNu6NSFv5aBeP19v9cXWS+60S1t8PBP1GPHS71+vpenckWetGfl7Qos23QHkpygq4ijwIhKMSDk1+XL5+xIgRGf9U9xO4jkNNyVvpJTDqq2X9Q3w+vrE23l9fD0+c51q+30cr6C3f5M4rL9/73yM1pBvV7NtYKX5lWHdPnaf3iMlJ+mWADn1dUllyaNhDOgBw16AIIYCobbMDzev5RGbkkpWVs/7BrTw0YGL/UB0Az5879PV/K0sqhz30DgC4a9wRQtYVDxHiEQ+EeD1de0T06pN2X7DXG3JnL9JdA9VHStyD9LI76zye2x+ZMELw3LdVfC/ok/BY7yBPiL/bo+qEmQu2snPvb0d0AgBAiG9+PPCZ5+HIsqF/WwYAIAgXJk385JMht/N7AnIOTKMRgZdGBsTVRhGB2+uAAGvKvy7vM2FB32BvXfdHJ6T10fF8WwEed43qRTa1HEcA1wFhkszhsObLtea15FiFKPBw+nz1Hq4bgCSBIKPTvzhQXHqguPSXb0u/XzScanf0byyvowig3rlpOMId2lndKymqGwAIX/t6z97v9+79vrxk79aPk8Iffqekcps+c4B7o3ZIknavCwFAmJ/38zz4T/7862ngASBM0Oi51HuyvD9wjg+5gSQDcXXDOfUDmc8PPO/n/X4AIAPDWVi9pyaorwdHAOdXVrg/IGe+59Mr9pevfGUQuX/58w8/s4L187ygzzMrlqXs1b5X6mrtWqL6zxxC0PbaY+vHJ436pByikzJfnyAmgef94Abw+3geeD7YDwC8340i4vVb936/d+/3e8r3/neD7vzNhtA7n3g+smTlnhJz5QDlA2ENzw+KiNdv2/v9nr3f7y3fW7JBN0DAAymo7zM8CPyhjTceKH1+Hnje7/cB2dBXwgL9p9uj6qTjy79qtw3dYhMijmytaBICt/P1Z7K3cn4eoM+Ercdra2tra078tverd2R3+kEQHiVwV3Ouhhq4ypqIyPBWAmz47IJ2hd9WgDwAcvl8PA+838e3L8BYwXkjAGwArhl9xo0j87I3Rbw0pDcAALgdXxXY3QC1P+QWQ7K0JyONB+uCwiMe3vV7oWbwkEX7ULujf9vPVz0CaGdauem469CGf769rd8rTwsFwuHims8WF//hrfP8svS5x57LryjXJT32wZ8PKib/34K3BtRUVgtiR0SWL9/GAg/HvpoycupGlm8+Twr15ZGNK/dywKOy5StqEkb0jQgjSTdCDfOqAuEwcc2m5SWneR7YbcadgqSHI/zN6uHP0+Zbdg2gPWU1HOc2ZsarrHcOH/+PD3XPRB6trEY8kH0ee2Tke+/0+3ra++XnmuqJ6CWoqTxU4+dd5Ru3HWnn2qO/bPqefEanfXHU472PfXMI8TwfEftMn/Llm1jw8+ym5SU1wJP9n+lXuSR/1591njM/fjD8sRfXXajZgp6y5yM2vfvP8oTn+ofVazas/zP9Kj/O23XG6/nz+w+GJ724/n88NM2/N9YWoGdCgqDEuK3az/M1Jcs31oiHRLXoIaEPTE45PrfdNpAPT57c6+tpb39d4eKBrylb+frUr+viY8MD1/vqvO46j6fOW+f18Tz4+ajHkmDj+8v3cuDnXZVfzf3quPhpIdlUpyBCgCr3V4PfVfXt1+WI5zsgwDDxqH7VKzdWusDPlazaeATx7QiQPf8aAJ4CunaOc+/0Z/u8W/TyyDvq4z2K/H7KyITquvDEKZ9+GEOSMGvFK9MmKsQ5AORDmhVviMnmyms74l+ruSA/7yeA8EPzkocjy1PvXg4Aj3EDrAAAIABJREFUIOgVO+SV1fnje/t5/vGPlz0zQfOIyA2CiCG6Zc8L76l5K+GFFyQSICEiXrvsifC+xGfa3RNSH8wB6DXonWWjejk3Q/3mk/onF3jgyYijc1MfPIIEwolLPntEwNc+Ho9Gy4aGrpsOADwf+tj8T56bqHn0ASQQ9Ep6a+WM+8L81dBUD19fT8s23/zlJSnLFRB3+BNvTTRPkA2YLQBBnzT90gFhhwB43ufvPvL//rnsySn/Vha9KhQQQPih5/B3nln1SnL/nIj7hif1I4FvfW38g8cn9xn7zMCtUb169YtP6lNZWe0fNmaJdufEx0Wzw6Ni+0UIBODvqVzy8Z4JL0n+DSCIHLEg/xk4ebCdZtfPoft7ykZFvmZI+LB/KO+qX4Do+dzij/dkvfTgvwHIyBEf5j8dya9pGNPrp6maxnHBA7OWvTZl8tD+OSCIEL/y2SePhJ0sbzwH/ERY3zEpvdoXHX/Py1+tdE2eqeibddwNvWJHab5a8VxP8NXwDbuGmp8veOgfy97K1ozrm3McIPy+4a+t+ETWrdk54Y/OnNxrolz0kSDqiZSECNRW+O0I8PbpS/TbMkc+9FF4L2G/CLJdAfbk/dCs5c0fXuIwew4AtuyvnTQkEg/Kl0rutuqhseHNj2zZXyuLvbP9swm4LQTcngYNHP/8pWe2TNy0QtoNAJxfpKT9b/H3OjFJAO/xgicQ4YYSoYE/hffxyNdUU5ew8zbpXN1VlUDZbx5Z9LnWb50NCg4JDiIaMhDxfp/P5/fzPEEQga+A54H313l9BBEUHBwcVH/A5/X56w8QwPN+v9fvg+CwEH+dx08QBASFhBLeupNfjxpiedO2bHCXppqDQkJDCPB7fRAS5Pf6/DyEhIYEAQABfq/XxwPfrB4iKCSY93r8t9wboX+uPCTsF9NRZQWFhAb5PD6AoODQ4CCe5wngvR4v33Cc54nQsGC/x+OHhtogKDQ0mOB5nueB4H1eP9/62nrl+v1+gCCC93qPbfroS+KF7PRePFfyesq7/b/cNL5PYz0AvNfjPdR+s0NCgnmf1+/nibCwEL+nzgcEERwS7Pd6/DwRFBIcTAQ13Q6EhgX76rw80eKckCCf1wc8ECGhIUE8DwT4PB4/EEEhIYTP6w30ENehT0e9/PhHxnbaQBB8U08jgPf5fX6vPyBS8Hnr+3yz84OCgoKDgwOirv+t5rUFRA28388TBO/1+tsKv7UAT+40Ljox9K1nYwSusn8OnYg++na2+LZWAuRbtnlNmbdx1MIRwFWdKnF56j/Wbh7xxIsVjyze+lg3aBrYfbzL0yJC83h4z3Uwyl8kAvAHvKFmpc/r8RE88AS0KP28n/Dzbm/zIz7e729xjs/Lt7iWd9c1XutxA0/wADzPezxud9NVPk+dP/C5rr42T11dy19vUY+vsT23UnlpyvJ56gLHW6qMbzwORJ3bRwDBQ2NtfJ3b26Ke1tc2V66XAILv2T+6cvyTwreBhPB4zcfKKL+/dT3nabansdlut7u+GY2a9Xla9iKizu0hgOD5Fuc01uCpryFwvp+v89QLoWrZ8KRZtaM+e7zdNvD+9npaC5G2PN/H+/3e5gKBlrW1ElcHBNjtvn7uuc8MeBdIiIh9ccmSWLKtAPmWbcYRwDWKAFouvnQJIfxeHjWoIzSUCPLybv4Gk0DZb57BUX9e3bSmRJggyOv28Ti96yWWv/5S2fc+4fXWsKDg0JDgwBaigE98XTU7KCQ0mOC9Dseh61B0PA8EQQSHhAQHAe8H4L11Xv6iV60t9+MI4Jq7zXCurrWzf6Peip8nGvfeXI2SdyM/AYEw+mr+7g1fXgtlXbzk/XVeDxAAPEC7ar2mzfZ53D7+ehUdAeDneb6uzgNNArzoVXgXEKYTdoLiEr9WE78NFL8NFHPLjf443xZOrYUzguGMYJhb2AbgjLs4uS7OCXzj5QTGawBXnj9+2X3r3GxvgCon1vkNQ5XzV9zsW0p07dEXG4BOJCEhAQsBg8Fcn+zfcQobgE4kNDQUCwGDwVz/4DUADAaDuUXBEcBVxe12f/rpp6GhoRMmTMCBAgaDwQbgluDcuXMHDhz44IMPfv75Z57nt27dOmPGDIlEEhYWhoWDwWCuCXgK6GpQV1e3a9euN9988+DBgwRBBAUF/fLLL6+//vrixYt//vlnLB8MBoMNwE2I3+8/ceKE0+ns1q1bWlpadHS0x+MBgKCgIJfLlZ+f/9Zbb61aters2bPnqwFZFbSskLsRb56zaiRSo7P+PhxGpYShaVqkMNibZTZgC5UieXv3x1nUCoMDXcf3d9mqcRqVKsslX4fseqXGhq68ZM6nGgAAzqaXi2iapiVKkwMF1CKVSKUypSmgWNakUDToGIMNAKaJc+fO/frrr9XV1QihLl26DBs27JVXXklLSwsJCfH7/YFQ4Ndff/3oo49mzJixf//+m+neObtJJZV/VNYwnjgMSj2pt7Osw0gblbrAOMPZDArp019WtDOWIZtWhzQqEXkT9gvktNqc6DIus9hYBACUXCsvVJuu1KjbrmoatKBTmSQmJ8vadaBTmZzAFurtCrPNokEGgx0BZ9WZGK2KwQ87NgCY1hw/ftzn8/l8Pq/XW1dXV1dXd999940bN65r1640Tft8PgAgCMLj8fz6669ffvnlBQdUi4phVFYOwGmU0TKDA4CzauUihmEYkVxrvc5CBGeh3iLSm8fH1A/grLWQk6llFAAlVcvBYnECILvRYJcbV6W28xpatlBnk6ilFCCrkpEoFDKZXCaVqcxOBMCZZYxMLqEpkcbG2gwKCcMwNCNRmRwIwGGQ0lKDE4CzqkWMyso5DVKRXCmXSkUMI9MatUqZVMIw8oCry7W6nDXLaZHWjgDZ9RJGYWbb9/eRRU7LLajemZcwDMNIVSYnAmDNMkZpRQHXWMqobIgzyxiZUiGTSiUiidLkBGTTagqritVytbVMLxFpAwOuQy+RaB2thaCRMQzDMBKFwc5aNNriqkKVXG9HwCjUYNDbrkgQ0J5qmtRoIRUqKQlAy9VS1mxlSZJEHEIIISABHCY9p9FKSfysYwOAaYPH40EIhYaGEgQBAGFhYS6XCwDuuOOO06dP33PPPcHBwQRBCIXCc+fOOZ0X9OgoucEks6q1ZoNKDzqTRoSsapVFYnI4nQ6TxKo1Oq6rW2dUZrNWzjSMDIh1cJSIIgEASEpEcQ4OASnRmk1qGd3O8MHZTA5GEXD/EceS6kKrxWrRIp0qMCazTpHRwdn1SKs0Mga708nadEin0DlApDFpQa8ymLRqq8xkkFEAyMlKDTabw6Jk3zdQOovNbtVyBoMdIaum1eW00mQQmVQ6s05lFBmMSvqiXjkLykKn02FVObWqFvai+RDrpLUWm81WqLTr9DaQ6g2K6GSjxSgTXHBgNqs0dqXF4XTa9ZRJa5EY9MnRCpNFKyEBaImctJqvxDRQu6pp/M6JSFF9KmqKITkHRyn0alYrV5klBg1t0VnkOgWNn3RsADDt8N133x05csTlcoWFhXXp0sXlcrEsu27dukcffXTQoEEnT568995777333kOHDtXW1gYHB1+4NkpmMEkLn9OCzqRmADkK7ZRSJSUBSKneZtOKbibJsQ6WZOotA0lJVTIKACipknYUOhAAUBKFhAJwFNoohVpGAQAt18iQ1coCiDRmLXrtRYs8MPwDACOVMgBAiahoiZQhAWiGRBxC7V1OK40G2vCcUWQwdmRko2QaBQNAMkq1yFFob39ApiQKCQlA0gwNXEfHbOQodDBqhYgEoOQmu0XVsjW0iOIc7FWYrmp5JwCkRG2yWC2FeqlTb6C0SjCpZDKZQmN24gceGwBMc2JiYo4cObJv375Tp06dPXv2wIEDe/fu9fv9Ho8nMjJy2LBhd911V0VFRUhICMMw6enpF6uPczhRBDhtTq6NF+dkr+fV0hauJeIcHCWhL2faoPEeyfNcTQIAcE4HK4jg7Ha27enkBX+WBADE2lkyAhw2JwJgTVKCIAiCoFXN51sQoGZtafXzF2gteYF74hACcGhFgd8T6SuaD76cs9MUfEHVUAyFWK6hDYhiqKbZIZPeqdJKHDoD0hUWaji91orwI48NAKaZv0RRUqm0a9eu5eXle/fuPXHiRGhoKM/zPM/7fD6SJKVSaY8ePVJSUrKzs+Pi4i5cm9Oo0pMGm0VhVWmsHMnIJZy50I4AkF0nk+ns1/Xjx8gUlNVo5QA4m9ECctmFvWtaQqOGIQ9xVmMhC4AcZqNTomy2LEyKFBKu0GjlAIC1GKykTEoBZ9WorAqrzUDqVRfendLe5ciuU5lFZptJZFbp7IhW2QL6Yk1SkqRJ1upEAKzVZG8YFe3m+uvNTolSRJIUiRx2FgA5LebzqoQkAXEIgKJJzuHgAJC90OIEAJHeEfg9hzZOpBA5jRYnAHBWjUxhckJg+r0hRuIoCd1Zqqn3KEiRQoZMRhsHwFqMNlopbfhFzqIzi3RKhgQEFEmSJAkIj/83IPgPwTqRQArmmJiYXr16HT161OPx+P3+wPu4g4LqTe+ECRMGDBjg8XgC20PPP/wblDrQ2lQihjPKJCqN1W4ymqxKpciIgBSpTebrfCVOpDFplEoRzQEl1ZoNkgu3lpKoRI5CB5JLAYCkOKOc0XLAKIxmJQ1N8Q8pM5pUSrWIRiRJy3SFOhGyqlRWuckuFVFGrUmqNMjNF7AArS9nHDqpiTHY5SJaojdJVDqlTd/YUlKi0UoUcoYmaZlcynAB95liDQqZHiFSajQpaQCZTkMrpbSeZORyKdX+mEgyconzOZGcdJj1SpNKQmsokULWesMTrTQZrEoZowOgpFqTRkSxCpFtmEi53WmWcTYLkhuuzB6ptqpBFqVEq7Tb1YxUb1QplSIaAS3Tmxt2+yCHUY80hRISQKpV6jVyOVBKowyvBd944JzAf4l2cwI3SvLPP/88duzYmTNnCILw+XwnT550Op11dXV+vz8sLIxhmB49eoSFhfl8vq5du/bu3fv222/HIm2YGbFpZAa5xSyzKxidymFVUFgmzd0BmZoyWfD2S8xfHLVwBNCJ3H777ffcc8+pU6d+//33oKCgnj17UhRVXV3t8/nuuuuuwLuA/H5/796977zzzpAQrIvmXrJUp6NUJodUgmXRGs6ityoMZjz6Y/AU0PUu35CQXr16URRVVVVVW1sbGhoaHR3t9XoDG0Nvv/12hmHw64DanwaSGwvlAFDIWrEw2pUMBoMNwI1AWFiYUCj8448//ve//wEAQRDBwcE0TUdG4mk3DAaDDcAtQI8ePcLDw3///Xev1xsVFUWSeNEMg8FgA3ArhQL33HMPlgMGg8EG4Obk1KlTWAgYDAYbgFuRbt26YSFgMJjr1kdt/IT/EhiDwWBuUbABwGAwmFsUPAXUifzww95vtm0JZPviAYDnz1d26dIldejwgQkDsdAwGAw2ADcDGzatfyot/W933SUIEwjCBGFhgrCwMJ/fV+d2u+vcdXVud5078JmtZteuW4MNAAaDwQbgJsGF0B3d73BU/HTRM++8s0cgVwwGg8FcNfAaQCfi8/n8Pj8APPmE/AL/ACCIIAIZIm8quOLs+KRcZ+A/yJGbGS+MiooSZywMZApGzoIpScKoqKgoYUr22jbJTbiiKRkLHQicuWlRYWFRGWsvLeslKs6ISunwNah0ijApj+3ADXUL6xafU9bxVx+zBSnCzGKEyrLF8QudHbzImZs5sYgDQKU5adnFnZ3us61qmt1y6dw0cVRUVFR8Zl4gKXzRlKT4pKSUzLzAzbB5GRm5zmvRvdii7JRA94mfmOdE9UfEQqFQGJ+xsLRdqTnz0qLi65vrLMhMSkpJSplS3/ccC9My116WrLmiTKE4u4XoUOkUYVgzhNll6LJFh8rmpvQM6yacWNpSO+zaTHFaU5ORs2huRnxUt25hYd2EKdlrnQgAUFFas2b0FGcsLMUG4OoZAJ+/Q8N6UFDQTWYAuLK8iYPSFu1rTAq/cOw8cs6eo0fLF0d+OnZ2GQJ2XVZOxaRvKo8erVw9tHjq1CKu5YicMxtNGyciud0FZYnrjx9dPfKavw8UVRVsgVn7zuydE3fJf8RNxs36ZsM4pqM/VLy7CgEAmThtXFXOvLJOfdV+W9U008LsrC/illYePbpnFszOynMCu25eWXp+yYZp7oWLyhBwxbPzomd09L6uaAcryp5aPHR15dGjld+8WpWTVcAGjvynvLJyz/yIRVNy2yZJdeRm5TSaU0fBwupXV29dPa5iXoETgF07e8vQWZfTydiCrKlbWufrIROXVAbygNfu+2BgzLMfzIjjLlt0bHFB1eidJyo/SySbWeaFGYOe/U8FavJOpjyZtWPw/D1nztTVVS4dWpr1VL2jEjFw6ZH6tuycxs3OwgbgKkYAHTMAxIUiAHbtlBShUCxOyshMEaYVIQCueG6aWCgUCoVJE/McCIArSBGmZKYlJcULhUlTcudOTEuKFwqTsos5AMfceHF9T3DMjY/PuSrJg53r5hbF/Cv/hcak8DvW1QyelEwBUImThkJRkRPImBmLF49mSAAyJjEG2OrmjxC7bnZp3KRE0rFwbM6O6qKpaVOKqwpShClp8VE9xdmlXFluZrxQKBQK4zNzA/fWRiYAUPXp2Pj6I04EAM68iUlisVgoFKfNLeUAgCvOSRFGCYXxafNKWw+yzoVJ4ozMtJSkpHhx0pS1LFc0ZWxexb5Fz2YsLCtbmBEvFouFwvjM3NaJebmyhRnxQqFQKG4e16Cy2U+m5TkBgF1b76bWfx/QXUZKUlK8OD4zzwmoNCd7XdWOqWlTihHQQ1+KXje3M4OAdlTTTI1bBOkvJJIAdOqkgdUFO1iSJFGNGyF3ICl83jxu2ozEa/FOEzJ63AdLJsWRACQdF0dxLEelrqjc+6aIBOCqa4CkyDZu9NSCxDnjGhJVB7LyIMQhkgSudN4iasa4y8ir6sybujBy1qTzugTO3KxF9L/mj6Sho6JDzoJAD4kSp+UUc6g0e+zsfVUFWWnNAk9UlruwbOji/KGRTU9MzrroOUtfTaYBAOjkN/PzZwxunXSaFKWPjmaxAbiKEYCvwwbgPKaCWzv1jYrR35SXl69+AcpYBMAVTZm6Y/T68srKyj2zYF5WIIpkq+hZW0v27pwFn86rmrS6ZO+eD6iCeaXctbl1ZtyKFW+mNiWFr66oiYiJCGQej4iJqKmoQVRcaqqIDHTmnN1xk4bSzSce8iqY9BiSFL26dM7g6PSlW5ckRwCwVTFLyk/smUPOnpgX91l5ZWVl+RJ60dicMtSuTBALo1dXVpZ/M64qJ6uARWXz5pWNXl9eXrlncVzFugqESrOzihLzKysrt86KrGmbrRc5nYkfbCgpKVkas2V2Hpu6ZOm4mIGz1q+exM2ex735TXl55c5ZdOkWZ4vQv2z22E8j5+yprCz/T3rZ7Nml7jbu4t/Zad9UVlZWrh9X8UZWARvQ3YwNJSUl/xm9b/a8UkicMz89evDiDUuSSQAqbmTk7rzOiwHaU03Td05ExjRLCl/BUelzJrE5aVkFcfOnRRbN3jJ01shrkxSeFKWOTKQCUzk56yJGp4vq5Z+TEtVvbNngGelMy4hy9pQt6YtnNA3UzLg56cVT06aWjp4zGgpmV42blXzJ7j9yLJyaGzN/zuDI88YpOYvQS/8aSQNAB0XnzBubXTFufXllZWX+4OKxWUUx85fOGBAzKX9Ds8CTjHtzxWeTkiMbD6CKoio6cWCzCpnUcSNbZwziSgvyqqKbH8GLwFfDAHzzreWiJuA8pgJVrCuLHL2YCThhQ+l5gCrW7a4o3f1UwjwAQIgFVIXGAVBx6XEkABVJRUanx5AAQEeSqOZ6lxEqW5iRkRe3eOu45g8DW8GS0W3TBlNx6XEUkI6iLfvKuIyEL0gAhFgU4+QqtrSRSRxQydPSGQBgRk+KmV1QBunpA2syBiXtSE8fPXrWrETSmVNGps5IJAHIxEnpTFlbM5aczJAAEBkX6a5yN+X4jRmdWDFxUMra9PSRo+e82uIpY0tLYfD8ZAoARK9u3QvAFrRUZ0FxRXHFk+K/AwDiUERpNUps0B3QTCS0GeqpyEioquIArslA27I1EQBk3KTPNkwCAFSanUbNyIe8iSl5VVTcpA/mj776M0HIkTfxqdkRc755U9QwMs7ZenRW2cKUtLG5cVsnMQ3TIznZZePyN4jIZkqmkt9ckfwmAHBFE3PiZq2uXpg5dl0NlTht8ZxUuoN9d+q6wUs2JFJs6Xmiqy3zdsS8Ob+xbR0QHVdWUBU3I50hASBu3KToT9dVoBkdMYgkALhRe4mna3Zn9QnLAgAQRA8cPT8fG4CrRGhISPXx6rv+1jssLCwsNCw0NDQkJCQ4OCQoKIjneb/f7/V6PV6Px1N39OjRsNDQiz6Gje8PjZmxvjzQ5TmWJWkSFQDZFO6RbTpBw2Nc43ZfG3ctIiaiprQGAZCAaipqIuIiSQBgi6akTa0Ynb/1zcQOOV+N9yiIHr26PDAjilgW0VTFljYyKV0ErTK2U8mfVR4tK1pXtC4vK2HhtJ1LofkzIwBApRN7DvqiBgAGLj2Sf/520KNXVw4uK1pXsC43Y3benD3TCvo9tQUAYOj68qFNQyZinWzrV74iRA2cv7MkYO44liNpWNfsvq4b1TR4/YGk8DQEksI3myJ35s2rGvdBXEVONpq1dTVkp+QUp69IvqqTQVxpTlpGUeLSnfNTaQBAjqIid+LIOArIuPRxkfOKq9CkQAyKynILdhdz4m7Z4Ha7ARKSuJ0lDSYDleUughn5kVvG5tHzS5Y4M1LmlSXP78AqD6oo+KJ0hzOp52wAt9sNSQlo654lzSd12B25FXHThtJtfPwOi67DgR8ZnRzD5pZxEEc3LnhkzEb/WjEJIGLg0vKSZg7W8h34VRBXhYxnRm9Yv/HDD+e/9957/3z3nzl/z5mpnZn9xuuvva557XVN9huvvzlzRk7O2++8886X5i+VY55vV7ExowdW5xWUIQCuOHcLi4CMSY/jPl1UzAGAMzcjISPPecFWUDTJVVRwAKhsXZHzGomCGZwesSO3mAPgSnO3QGoyDagsJ21q1aT1G9oZ/ek4GlWx5+v9THIibJm3jgUAdu3EhCfnlUG7MuHKCoo5AGC3FFTFjY6B4onilIKI1HFvLlk8LbqqtJpOT0Tr8so4AFRWsKUCgEz87ERgtaxk3AV8QG5thnjsjsiRk+YsmTOarqqoSd4QuKpuQ2p0cjLsKCjlAMCRl/HkG6W1LdUZNzqmYmFeKQps7UgYu449jzuHGmZiuKpqiI6mrqZqGpPCx6QPdn/xaSkHwBbl7o4c3TjFwBXNLoiZNZohwd2QFN59lZPCO3MzxhanbyiZ3+Cuo4pPp07MLUMAqGxdXnVMagxZfydk8oqjdWfOnDlz5sSeaTEDF+9pHP0B2HWzd6TPSqUAEBkpIKHj6e3JuDnlZwLVln8wMGZayZ4liWSD6AINWlsVPbp1776I6Ki49OiyReucCACV5eVVxaXHdMiq0ukz0qtyshYWswCA2OKcrJwyOvGiMRmOADqRQUmDByUNDnwuK7c7HD95fd7eve8CgN9//19IcIhI9ECc+CI5D6nUJUvLxo4VfwoR0dEkCQBU6tL80WOniqMQkBFD5+SPYwDtvlDPmDM6LyshKpuKSR8cI7hGshC9+tm0sWPFUVlAJc7Inx9HcmtzFu6rck8dED4VAEAwcHF5SUPEDlTcuJiKdRUotd31RTJxTv6MrKyEqBwAMnFG/qw4koxrI5NSAUVVL8pImYcQmbh46WiaRLNmRGc8GTUPSIgcPD8/mWLi8l8YmyUWIio6LrLjMyxU6qyXvhibIMwhgYxO/yC/ubdIxs1a+lJWVoIQBb5LDd8xr4U2xi1dWjp2rHARABmZvnj1aBoK2nHnUuOqxorTyPINo8myddUDX4ojr6JqABWNTcgZvWfvJCZxzuIXxo4VRyGIHDwnv2HLCnLkzkPTVseRAIkzRs/LTksDavSSq+r+o9LZOTuqanYkhP89EBNP27Nn/uKlO8ZmCBchIGNGL80fRwOweWkJBbMqt55vdw8qnp0bPWsDAwBDZyRmZKVsISMnLf4L0kbFDaID4Kqq2pjui4uOmZQ/v2zsk8LZQJIxo5cuHUmBo2O9csk387OnZgnfqHKDIHrwpKXfzEkkLxZD4KTwf4l2k8K/OLh72zOzJk3Ie7X1rMJYw/NZL00IIoLCwgRRd0f37NHrwp2rKE24aFrlhtRbIJMMKs1OWTh0w4rUWzwZPFuQMdb5rw1vinD2IMwVYvmOUzgp/NXgj5N/5K/4/Bxy/+1vdPS99/77R+Nvv//v7t53HTvG+v18SEjQ3x7/257dezOeeZYICqr82XExA3ArQSbOmkVl5TmSX72Vhz5UuqggZk4+Hv0xnQSOADoxAli/YZ0ffEFBBEL1a69hYWF1dXU0TYeGhJ5D507+cTKYCD51+g/R/aK7/nb3vcx9WKQYDAZHADcDmzZv1L3zz+7du1/gnJOnTup077w4/qXg4GAsMQwGczXBBqATqaurU09++aKnde/e3e/3YwOAwWCwAbh5+OzT5VgIGAwGG4BbiDNnzmAhYDAYbABuRXBSeAwGcx1zChuATiT0Qi91wGAwmOsF/CoIDAaDuUXBEUAnsnfvbsuWzR1MCj982FPSRCkWGgaDwQbgZmDt+sKOJ4X/es1qbAAwGAw2ADcJOCk8BoO5nsFrAJ3ILZ8U3qqRSI3OwH+Qw6iUMDRNixQGe31SeLNayjAMw0iVJkebtxZyFrXC4EDgNMppgqAVhZeYFN6qoGUdvgbZ1IzUxHbghkiClGjt6JoI1GFQqAvZK15tW9U0u2WbXi6iaZqW1OuIs6ilEqlUpjQFFMuaFIoGHV9dWItGxtA0TTMSlakpLVuLXtfs7EKkqf20AAAgAElEQVSNlKEZhhbJ9TYOAMBpVkqlMqmsQaQOg1xZeHlJ4S1KRqRpLbqAWBmGZmQaC/tXRIfsehlFkIzK1iopfKFSJC9slhTeoldIaJIkCJKRaQoDSeEtcqIJSqQw2LABuHoG4NZNCm83qaTyjxrzWzkMSj2pt7Osw0gblTo7ArZQpXGorU6n06bhdGoz22pE1uqQRiUiOZvZLt18mi1UXPuk8E6zBXQHkV0vuTZvZxOpNEivs17hNJ9tVdNMCzqVSWJysqxdBzqVyQlsod6uMNssGmQw2BFwVp2J0aqYa9DBLBq1VV7oZFmnVePUqsxsO72ueXfSWBSFTqfTYaCMaqMDwGE2sJpCa6HKoTc7AdhCnUWuu5xOxppVakub5BXIrlPoQWdzOp1miUWts6HLFx1rNTuVuzinSdosKbzNoJA+/WWzpPBWtUxllRnsCPG80yS3qeT1jkpE4vJjPM/zPO+yaTidChuAqxgBXImk8IVqGcOIRFKFUsbILQiAs+rlooDvrDI5EABnljEypVwqlTCMVG3Uq+RSCcNINVYOwKGXiOp7gkMvkWivTlL4Qr1FpDePb0wKby3kZGoZBUBJ1XKwWJxAK62sVcUAII5DQLXM4c0W6mwStZR0GJTa4mqLWq62VplljEwuoSmRxsbZA84Vw0iUxsC9tZEJADjrz5LWe4hOk0oqEokYpsEL5KxaGUMzjESut7VJCm+QihRKuUwqlYik6kKWs6iVpooyg0JhKLMbFBKRSMQwEqWxVezCWbVykUgkYhipyuys9z1lIoZhGJFMU8jW1yyXiygq/rlBTIMH59BLRBo7Qk6zKhAWieR6KweA7BqRSCFnKFpuYimpRmrTXdkgoB3VNFOjhVSopCQALVdLWbOVJUkScQghFMhsbtJzGq30miSFZ1QGo1pCApC0REJxLNe21zU/nSKBRQgAocB/WiWFt+kNlFZ1OUnhTWoDrVO3dgmQw1xIqnUKGoCU6q1WnYTsqOiQ0xzoMLRIrrVyyKZR6sqqzI3jecC8GA12uXFValNS+EJtIaM3aWSBpPAyrdmslbWunRQplEzL3nOYPXeYPffvrSyPuXT+vZUNCLDxX3NJvvzKS/Z932/ZtvnClWzZtrn8gF01cVy7355eMzI6+ZPDLp4/tmZMhCB5s+v05jExqcsPu3ieP715fEzigsP86VXJgujpu1w8f2x5IkS/vMvF86fXpEambj7NH3wvLmbmjy6e5/mD78XFzTx41aTj+vHlmMRPDvM87/pxekzce/W/fPiTxOjxu1yBU7a/HBcBEDN9++mWN50aPXLzaZ7n+WOrkqPHbHfxDfd4mne5fpwel/jejy6e5127psfETP+xHZm4to+MEKQuP8zzrsOfJEcmLz/m+vHlmLgFh3meP7195viZu1yuXeOj42bucvH86e0vRwviGvyk+mYuiBPELTjo4nnXrvHRce8d5F27Avfj2j4yMnnVMZ7nj62ZPn7BQVezqwLNPc3z/OHlL7+86jB/bFVqzJg1x3ie5w8vT41OXXUsUPN7B1286/SakdGpa04HVBMz80fXwQWJcQFZuA4uSIwes93l+nF6tCB5+WEX7woIrOGKK6ak86iG53nX9jHRDd6j68eZMXEzD/KuHz8Zn5qcOnLm9mPH1oxJXXDwmj+Eh5enRie+d7Btr2vBsTVjIgEEgqbOdnr7e2NSk1PHLNh1+vAnqSNbar+Dwju4IDVx5q7Thxckxkz/sXk/cG1OjUycOXNMXHRkZEzqe9uP8XwHRXf4k8TIQFd2/fheYuTINS0e4ZY/v31kZHKgM7i2j4mMae/Zdm1ObYoATu9akBgR13zUwovAnTwF9JeTwjsK7bTSyAScMDmtB+QotFXYbHKJHuoToDuRCoCSKCQkAEVTkYxCRAIATZOIu85FRMqMdk5v08oUqkJH0ywP62BJpp2k8BKFhALSYbGU2TmFxFSfFF7k5ByWNjKRACXTKBgAYJRqkc5sB4VCyimkUqtCoVTqdFLSqbWTcrOUBCClagVjb9M6RiZjSACgJTRyNiUKJEVKqUMllRUqFAqlXtPibf20RMGoFVKZQqFUqPUKBlk11gqrQybSAgDiEGVjkRSAkcoYEkhSppZqDBZWLjGZQWWWcHZ1aZlTJbWQgbMZOwsyIEVyKdPwIxRDsjYWrtaEWMvwhgIgJWqTRQ0AyKaRU1ozmFQyk5OSqA0G5dWfCUIOk0quo/RWregifrpSzWp/dGkkyKqRqdQWu1lOybRmmRYAOItKK9EVsgalspCjpBqjXt6xpPB2g7pQZrRIKdbWztfVpRbQW51msGplSrXIUajoiOg4u9kp0SoYEgAkKjVjLHQgbUeeJBLqw5s2X9WUvvg34kUAAEF0otJgxlNAV4lAUvhePSPv7h11L9M3Rijqf3/sgFiJZMBDceIHxf3j7o/pf1/fftF9mOrq6ktLCq+1OBwOh8PhtDtsJhnZ/LsLJYXn0LVZvSQpEcU5uMDaL+fgKAlNcrZCS2D6hJIoZZTD6kQd6uQAAGS0srBeAA6H3ayg2pdJ66TwcpOTtegUjNOkksgMgbmwRomQAMimogKLZRdeEKaVhU5noUZG2o0KkdzkbFxnk1uQSGNl7SaNFKw6mUhp4RCiEg22hsbarfXrB/W3QsnUMqfJYjVZSJVSBIAgMtVkD5ztsNsL1UzgZLL1ONypqmn6ofqk8ACBpPBMs6TwJr1TpZU4dAakKyzUcHqt9Wr3Lc6mlckMtNFmvpjpQU6Lg1ErJSQAJVMrKbvF2WI2BbRa2qI10QaLWWXX6ju2xo8cZpOtWCelSFL0WmnFR1KJutk8IkVHxylVMgqAkqmUtMPGXo7oOp4UnpGJWKu9mcPnMCqUgT7eFAEgp83Ucp4LG4BOZMzo5zqeFD7z+RfaVaxIKWVNZjsC4KxGC4uAFCkknNFg5QDAaVRIFCbnBVtB0STncHAAyF5ocV4jUTAyBWU1WjkAzma0gFxGA2fXq9QmJwLgbCYLJ5EzZDM/mkbO8yeFl0nBoi9kAYAtVElkeju0KxPObrZyAMBazE6JUgRWlUhmpuQqrdGoYZw2llZIUaHJzgEgu9niACClJi7wpNhUF0oKX6gQKa20Qq036pW008HJLPXxtkXOGmUSjVOkUOuNejnpdCKJUuQwmGwosJdDomw1gU9K1TKnTmsmVQoGgJYqaJve7EAAnFUjlWjarEwg1oloEd25qmlMCi9SyJDJaOMAWIvRRiuljUnhLTqzSKdkSEANmc2vtm/hNCqUVoXFZrigux64E5KRMU6TxQkAyGEpZBlpo5VjC3VWhU5OASCSJi8pKbxE70A8Qgghx4LEmOk2u1FKNolOJePMhXYU+EVOIuug6CiJgrEbCp0IANlNJqdE0bF8cLRCq3BqVQZrICm8VavS2mnpRWMyPAXUiSQPliUPlgU+/2D//qef9rdKCv/AA7EPSR6+cCWU3GiyK5UiI1AME0gKLzeZlUq1iEZAUnK9WcUAsl2oZ+iVJpWE1lAiheyaJRcUaUwapVJEc0BJtWaDhARQmQ02pYzRIaCkGrNJTjV/ClQiR6EDydtdXySlerNWpZLQWgBSqjXrJCQJbWRiIymKNShkeoRIqdGkpEmk0zIKGa0HEmiZwSyjGIlZpVSJGEQxEvoSksLLdWqTUsJoSSAZhcHcfAGQUerkhWoRg0ggRWqTkqEpk8mmVDIGAJJWGAuVNDhbDiNqOZhsagUTEJPZ4FDKGB0AJVGZzTIS7K1mBB0ilZTqXNUgi1KiVdrtakaqN6qUShGNgJbpzQ1bVpDDqEeaQgkJINUq9Rq5HCilUXZVk8LbdNriqpriB297KxATT//Rbmi7OYs1ySVmndOqUJkNNqWU0gJJipQms7Je28iqMzI6CwMAcq1UoZJZSFpt/AubvJC1QXQyg0mpVDIGDkiR0miu794XFx2jNhvsShmjCzTVpOhoUni50WrQqFXMa1VuEEQnq01WvRQnhe9c2k0J2a4kx7/4wgWSwgsEJBN9b6+eF1YBssgZg8Zpkd8KSeFtGplBbjHLKdzLmsUeVpXcrLYapThJMOaKjFo4AuhETvxxwvT5ZxdNCq8c8xwQxEHH/osZgFsJUqrTUSqTQ6bBGdEbcZgMpM6ER3/MFQNHAJ0YARSuXeP1ezqYFP7u3n2EfWOwSDEYDI4AbgY2bFzfwaTwk7JewTmBMRjMVQYbgE4EJ4XHYDDYANyi5JnysRAwGAw2ALcQp06dwkLAYDDYANyK4KTwGAzmevZRGz/hvwTGYDCYWxRsADAYDOYWBU8BdSIn/jh+sOLA2bNnAznhu9zW9bbbbuva9fbu3e/sTt0pEAj+tXWk/bdtgZMlUUP+PmQtFhoGg8EG4Gag/EBZwsOJd1BNfwfA87zP53W5XFzN6Yhwyv7btiUvlAqCurr956Z8MRBLDIPBYANwk1BTw91BdV+21nb2nDuIILreFhreVXB7F0H3boK4+5lzZ/8EgBXf6856Tw/pr8TiwmAwVxm8BtCJeDxeADh7zt1X2Mfr9UYzd/n9/h697jjncgURRNeutwOA5L7H7mEYl/fMTXj/XHF2fFKuM/Af5MjNjBdGRUWJMxbW52zlSuemiaOioqLiM/PaSQpfNCVjoQNdR/fjzE2LCguLylh7SWl2UFm2OGmhs6OnO+bGx+dcftpOtiAzM895ade0o5omLbTWEVc0JSk+KSml4VfYvIyMXCd+2LEBwLQ1AB4ACCb8FQd/JQj49dffgIDj7Em/31/2U+WJk6cA4ODhH48dPRF1e+zNNviX5U0clLZoX2NS+IVj55Fz9hw9Wr448tOxs8sQoNLZWV/ELa08enTPLJid1WrUQqU5s9G0cdfTm+C43QVlieuPH1098jp+Qymd/iaT+0bBpWQNbquaZlporSN23byy9PySDdPcCxeVIeCKZ+dFzxjH4IcdGwBMa7weDwB/B/G/lIe69wj+XS7tE93dL4np0bvnbdG9e4SGBAFAauz4pAfSQgjBBZy6tVNShEKxOCkjM0WYVoQAuOK5aWKhUCgUJk3McyAAriBFmJKZlpQULxQmTcmdOzEtKV4oTMou5gAcc+PFOYGn+i96l5fiLK+bWxTzr/wXGpPC71hXM3hSMgVAJU4aCkVFTnCu2yJIfyGRBKBTJw2sLtjRfNBi180ujZuUSAEqzhTGZ2SkpKSlJKVMLHA23GxafFRPcXYpW7owI14oFEYJ4wOScCxMikpa6ATgiqeIhROLOefCJHFaZlpSklgoTMnJzclMSYoXCtMCri7X6nK2IC1KnFOGAJXNjRdmNBtHkWPh2Jwd1UVT06Z8szFTmJSRFNVNmFnEobLczHihUCgUxmfmliEAaHsEUPW6qUniZkfYtVNSxGKxUChOyS5iAQCVLcwQRwmF4qS/b6l2t4o7koQTiwP1lE4Rxy+sKMsWizMzU5LixUJxxtzc7IyUJLFQnBEwoWTcS6PZhXkd13I7qmmmxtY6IkkS1bgRcgcym+fN46bNSMSvJ8UGANNuBMADBAcF79u3nwgKcjqdBAF/HD9BALhcrqCgIAD49kDBLkcRQZz3RUDc/7d391FN3Pn+wD8JT19UyIhKRh7MoGUzdytN3BaSdovEvV3IOe1i7HEx20s1Xa3m/vpgfqfrlT2W39Jy3eWstuZa3VK1a2TtNaueY8p6rujy20bqOeVB11B8CD9cGfCBoT5ksEIGEOb3x2BEnoptXZ8+r/YPHGaS73yHfN/f+c5Mvp++/qvGvL82NDTsfRnqeRFAOPja61V5f2loamqqK4R1y+QTcL6FLqw8cvTzQti6rmX53iNH69ZTu9fV3KNJgZnFn3zyHzmhOb7E9sYOlVYlT4ao0qo6GjuEdk4k2oG+NMUQoVEYPPBQ1sjkyunRLbRHvbq3cn/l/lVi8TK5TeZbtJsbLtWtFdfkb9W8V9fUdO7zQrH458V+YN/ctgrWLdtYtub1qrnb3suiAESON6w/cqThL3nt6z5QFe4/cvSvq4QPNtaL4uG3hmxO5217T1u2tHh38dKt2vWb8m5NEkPYN7etnavJ3Va5OXNSt9AYtaru66aPs1rWLC3TfdzQ1NTUsJn+IH9NvVA/dIkIALwwd3NdU9PnhbBu6UY/cLuLq3Q76xqaGnbmCofqefAXL/1Atb6hqaluc4Yw5JAxucs1VWU1IoBYX1alWp6rARD59pydR47W7cyoKd6t21R5pG5vbuPGrXKrTxt0HeVV4x2VGeHQ3JotcfgxonLXLufXvLBst+69N9QHiw9lF86n8ZOOAYBGDIAbANDX35eWNlvq709JSQFQxMfHKxTKmJgYBQAAZM9ebPhBtlIaLQDExvJ6dV4uI3fCsmkCYmN5bWNN8c/S09LSMl+v4ttrWkQAoHS5OgJAqSm1JldLAAitJmLH/Vw/tw83qwb3Sht5ohmYtS+KMizOogCAMuSpG8sbb+4sBdBYXqvKfTWLAgA658254uEqHoB9c+cq8VfLDmXLzT8AMAYDAwCUVqV5wsAQAFpDxA5RHGlzOm/Te/TG/C3a9ZvHaNmIbr6BBiDcwUNf1n+wMD0tLS09v5wXGrmmYUtEAKJ7c7FOPoK69vIvedqQE7XluWdfWFpcr121Nofmaw8PdMKJLm+xbsjZIJ29XFO7pUYU67dUqZfnMgBANNkZNABRadWMQUcBELVG1S12iwAARK1Ttde0i3fnGBHd8o/3V+7fu9bQsu4DalUelC197rnnFr61m8MPPAYAui0AbvQCQFiY8sSJk2HKsGb5DODyZYVC0dnZCQoFAFSe+O9q/yGlImw8H8Nbk8Kv+ktDQ0NDQ0NTXcPnH2cRACC3mo3RJ4Xv6O6+JzUxuGspdjR2qHRqMsaE46MJFZ6MMmJGAACElsb2KJVQXx8awLk1pzoZc7SCAIDYXs8TFTTWtogAfNmzkZGRkZGRyUtrbm8KowZeKEqTt3fgUDQ01O2cHzNsCQW3zU0PBAgxrD167vP3FuvE8l9lpr9V0w23T04P4F+TJr9x2u/9QGe/oflyy8GDW2rVy7Ppgf24+ZJRoaJ8f4cm9MuxJoUvW9eyeJWusXijWLh37xvC79ccFvEjjwGAbhsCAoC+vv60tNn9kpT62CylQjl9eoJCoYiNjR04A0izZWj/VQGjBQDR5mW0l+2uFwGEw1sO8SIQba5O2PrBYQEAuC0L0xd+w00fFE2ExkYBQKwvP3ivumnM3FxV1ZbDAoBQs+UQ5GTRRJs7t/tPW2sEAP7gllp1XsagDjeto8WWgUnhu4XDW8t5ANG/e0uLLk9LBtVN7hMd5VsPCwDAH9xYRbIyKBAOv7WsKrfy8/fIzcGxUZu+ETYX64uX7tbu/HybdvfS4nqRXnykp6enp6fn3McjDnQzWQY4tK6cBwD+06XpP11XTw9bIgKI9fIVDqGmrFGTm0Hq1zz11LpuQ96b720q1AmNvCojV1VbdpgHEP3lZfXdAOzaBvmNG/6DBaCyXtXWvv12leaN7HGMt4jt9R1qg5p860Nza1L4UY+RcLB4t7YwjyHQfXNm825s/x9A+BzA3Q0ABUB4ePipU6cjwsObm7koQr76qj0qilz/+jqJjgaAQw2uy92c5sn0UdvvnM3b6vPz07aCSqORJ4XP2bYzL//1tGQRiCp77c7FDIi1o5eCzl2bV7YsPfktSps7Vxt1j+qCffPjN/Lz05KXAWVYtfM9HQEwrN30cn5+WrII6rlrd952JwmlW6xtLG8UcwwAQChhywupazpAk7tpZx4Nt8bISdbmbS/nv56WLBKinlu4p5AVDy9dVpW9rc7AUptWlWXmb8we4xu5h23ONBY/W8asr8thad3aP6UvLc47slY3VkNKDGt3rlq2LD15DQAxrNpZqKPI0CWkEQgFZfnPbgEAbeHO5QwhbxQaFi5MTQUCqozCnTkUm7Nz1dL8zNTXiVqnoYcfIyrr1Qw+v/s/s8Zz/xF3uEaVt4r5DodGPJifviav7uhyZuRjJPq3rBPf2KsjAIZVeeveeuEFoPI2Z+G14AcPTgn5nYw4JeQrcwce/S3+7Tvv/J/i3XvdaWmzT5449dPs7NaWlpSUWVeuXImPj+/p7l6yh17/i8qT1w7Mjn3+rV0/2Wu7PnbX7uALqR+80bQ/51GYFL7mrec2Zu//JKt+YWrxyw2V83Fy+HFWXP1bz/1+7v5PsMLQKLZXXQ21WjgEdBfd6O0FgAnRE0+ePBURGXmmqUmpDGtru6hUKK5du6ZQKgHgryf/dLTRq1BgbQ3tWxcWUlvL/DiucGf48t/zy9di649wCOh+GAICgHnz5ikUCoVCoVQqFQplqKlXKBQAkD178ZHLH0sgjadRzNl/LueRqT0qZ/PeHADYey4L/5TGjc775BOsBYQBcB9QxaoCgatxcVNCS6RBBg6AIvIn8a/jCQBCCAPgofL887kbN//X1StXJAkUSsXUKVMnT46Li4ubEhcXFzd12tSpusSfrPwkU175RzN+ijWGEMIAeEjMfnz27MfH+pKfwqRyrCWEEAbAw+Prr7/GSkAIYQA8inBSeITQfewqBsBdFBERgZWAELr/4XMACCGEAYAQQuhRgkNAd9fVq1f8TaeCwS4ACN37DwC9vb093QP/gUJpypyXlJSM1YUQwgB4ePibTumfeDKaRPf09CiVSkmSbty4IYdBf39/R0dHR0cHz7cdrKxYansVqwsh9M+EQ0B3V2fn9QnREzo7O69cuSI394FAQBCE8+fPnz179vz584FAIC5uSmtLy/hfkyu12iqE+3mvRa+FNnm+ZRF5t4mxesWhC61WF3evd6u6wOzwCg/dHylf4TCxDMMweouz+vbdE/0um56maIY12t2cCABChd2oNxpNNw8H77JYSjn8pGMAoNFbDlHs6+sLBAInT524cPF8V1dXf3+/JEkTJkQDgFKp7OrqGv+Lcd5q7tH6jjTB43AyBVbmHheDGB02rqDE93BVvlDhsHvNHj/H+ZyU017qv62vYSvg7F6e53xOyml1+oH3lPgs7uoKh+h0+kQQvEUupsDG4GccAwCNKhgMnjx1IhC4OmvmY+p4Gm4OATU2+gEgLCzs+vXO0ftnHruJZVmGYU2OCl6sLnB4Wg7bzXavKPpdNiPDMPTNrpvoc7CsxcxQtNnF+ZxWI8uyDE2zllK/CACiz2lhaYZhjRYry9p9Ioic22ZkGIZhWHPJXejbDithaAnDGG0uvyj/Wy4mYy6pHrFt5VwlnMWmJyC4TYzRYjaZTEa9yVHBAwDnNLJmM0tRxhI/X1FgZhmGoRmT3cMBiNUOlra4eQDeY2X0BT7B52BZq9Vk1LMMaykpdVhMRpZhLXJndujmfqeRNjo5AMFrZxmbVwCgzXbGU/JwnQRQZjfnK2AJgMALQCgyuK9RzTE2C0sAiN6iF9wVHCFEFERRFOVJ4V0lgqPAiBMBPLia+a5mvuujSl5Cd+6jSl6uwND/Q2pyX/leSZIOHqqoO1p39uzZCxcudHV1dXV1nTlz5tixY4f+euh/DvzP6dOnF9vyR3uL5g067crjQUkKHt+wZOWBNin42SJN1r6AFDy+WqtZtK9NkqTAZyu1miWfBYPHV2qisrY3B6Vg275FWSsOBCRJXm/FF0Hp9GqddsWBgCQFT28wRGlWHA+e3mDQrfwsIMmLNIs+C34/1RL8bL46a19ghBI2bzBo5u9qkySpbdd83aIDbZ+tyFq0q02SJKn5Q516/oGg1LYr6/aStG03aFd8EZQkKbArK0qz8ougJElt23M0iw4EpOYNuijd704HpWDbrhy14XfHg5IUbP4wR531YbMkBY+v1mkWbf9wvkb3u+NBKXh8pUaVtb1NkoJfLFFHyT8dX63VrT4tjbT56Q0GddaG7Su02hWfBQYKM7R0D4fg8dVZagDNkn1tt//xGdRZG44HJKntwAoNqFd8EQwe/3BJTlbO/NWftbXtW5Sz4TS2Ag9yq4VnAHf7GkCnJEmd169Pmjipt7e3vb393Llzzc3NLS0t/f39kyZOvHjxfFhYWE9Pz2ivQBvNpNRkNNuKfGxBifnWlIB8tVc0Ocw0AFAmu4VUV3AAQFizkSFAaIvbbQePs8RhL/JwgiAC5/WKJpuJAiCs1W4kALzPXVPvthlZltVbnJzI+/jvd2x5WAm/9Hk4vd1CAwBt9fjcZtpU6imivKUlBXaHixMEURxhyKuap9iBGeKBMVv1BABok4X2efwiADBGE0MA/B4/Y7fpCQBhrA693+MTgOiLXFbfK//O2d0OPQEAIIzZSAMQiqUZo54CIDRDiaIojLQ563AXiP/7lQqzy2ka+IZ9iqaB4x666wBEX+Llg8cdfrt18IA+Y3c7WY+FpRmLmzLrKEKA6O2uCm+Fp8TIlTipAiu4bCaTyeJw43UAHAJCwwLg+nUASEpOCgsLk6cHuHjx4qVLl2JjY/v6+mJjVdOnJ4SFhSlGnxGGGEt8fLXTphc9DqPeUT3aAPTNWcIHpgvnSk16q4unWLPdYdcPtF5DtxVBnePy+WU+n8d+V8dyCZFLcHPAQOA4gfdY9WanDxiTrcCuH20oYfgs9wAgijf3eYSZ3kPvI/j9gkrFV/sEuK1+5Fcd7Q1vbi5wfj5KJfi+52S8r4j+Co9cO0RvsdF+7+ALTCIYiyo4nueqS82CQOtpMnhczlag9xc5xSKPxyGUFHhx8h4MAHS7652dkiRFRpCEhASKogghcXFxcXFxsbGxs2bNSkhIiCYTwsPDRw8A0Veg15eIRqvDWVqkF/y8CISAKIhAG43E66zgAUDwlnoEvXlQ8y34PT7aUVJgs5hprsInAABtNBGvyysAiH6Pq1oEoI0WurrE7RcBBO+Y6fLtDC/hE3oL7Sut4AGAd9tMtj3HPNXEWlJkt5oZvmLk6b8IY6QE38AM8cB5XPLVjlKXYLSwg2aIZy0sV+ryiYZnotEAAAu1SURBVAAi5yn1MRaWAt5tL+AdXq+DL7C7x2zER9pc8DpsXou32klKbDf7xQLHA8M8TBNuif5Su63UJwKIPo+LZ80suTkpPAheh8nq5gGAc5dUM7bQCahQUeRmi6wMAfHmpPAitv8PIHwO4G6fAXRKktTd3X369OnExMTk5GRCSH9/v3xjaGtra3h4eHh4uFKpHPXc3FFktFgYBghQxiK3mSKCWc/9gjUTv8ddYLMZaQcQSu9wu0wEfDc3o4wFdspmZEsZmtHrTZSPE4ityG23WFlapFg9QxMKgHW4nX6riSkCoPQ2t9v0/V7NI/qSoSWkjO6iaquRcQDQphL3y/8qdDIWM1vB0DRrNDF+Pw/GYTlislJOLwdGFgAIxRUZGU4krN3lNhG4NfBAW12uaquFcQIhjNnptjO82+LgrBVuvR5KrUaz3W0sGiOthm5OeW02r9nlM7JUaYHLaHWaqx2M4PPwxtFPVR5ElKXU5bVaGKcIhLW63DYaxAqrvsDq89kZi7PEYzUyRUAYS6nbRocyo0R0ePQEwFhgLXGYzUBZS014LfjBg5PCfycjTgo/uCbXFBa885v/3LVrV2pqqjwxpCRJYWFhUVFR4eHhPT09X3zxxUsvvfTvr6345E+77nJhOVeBhylwmCjgPRZjqc1XYXlAerKCx2r2OrxO1mPSe4r87nvW1PBui5UrqShgsa1DD0WrhWcAd1e32HP9+vX8/Py+vj45AOQnAGR9fX0pKSnh4eHy5YG7jNYzXitbIhICtLnEbXlwxjEoi9Phdri50nvb7orVTjdb4sbWH+EQEBrfGZZSuXXbR1rtv7S0tHR1dl3v6uwKigqFImbSJGpynCAI/sb/99jMlPj4+LtfFqK3e/z2B7MeaavbDQDg5az3rhDEWOIx4t80wgBA4/Rvv/i3j7aW1h2tG2Ody5fb/pf9NawrhBAGwENFr5/z4eaPsB4QQvchvA0UIYTwDAB9T65evYqVgBDCAHgUxcXFYSUghO5X7aGfcAgIIYQeURgACCGEAYAQQggDACGEEAYAQgghDACEEEIYAAghhDAAEEIIYQAghBDCAEAIIYQBgBBCCAMAIYQQBgBCCCEMAIQQQhgACCGEMAAQQghhACCEEMIAQAghhAGAEEIIAwAhhBAGAEIIIQwAhBBCGAAIIYQwABBCCGEAIIQQBgBCCCEMAIQQQhgACCGEMAAQQghhACCEEMIAQAghhAGAEEIIAwAhhBAGAEIIoftWOFYBQggBwJ49e5KSkpKTk5OSkkZcwe/3cxwnr6BSqYb8tr+/v6qqSqFQJCUlJSUlRUVFDf5tS0vLiRMn5NePi4sbT3kCgUBVVZX8amq1+tuVefjKgUvRALF4BoAQQre1j9XV1efOnRttBbVavW/fvpqamosXL4YW9vX1DTSmSuXjjz++f//+mpoanucHb3jlypV33323pqbmwoUL/f394yzP5MmT//73vx8+fPjs2bM9PT3frszDVw5cuoBnAAihR5fcTx9nx3lwi3z16lWv1ztt2rSUlBRCCABcv349dDYwbdq0J598cv/+/c8++2xoK0mS8vLyTp06NW/evDlz5txROVNTU10u18SJE1NSUmiaHrFNB4DhezHOHcQAQAg9ipKTk41G49NPPz14odxoDlnz/Pnzoig+9thjALBo0aKNGzdyHHflypXExEQAiImJ6ejoCGWA1WpVKBQzZswIbb5x48a6urqnnnrqxz/+sU6nG+f4j2zhwoXvv//+mTNnLl68OGIAfIsdrGqJxgBACD3SkpKSnn766Z///OffuOauXbtu3Ljx61//GgB+9rOfFRcXcxx37ty56dOnK5VKpVJJCOnq6powYYK8/qJFi0Lbnjx58u23305JSXnmmWcMBkNiYqJSOa6B97q6uvT0dEJIbm7ul19+GdqqqakpNTX1u+xgQ1c7BsBddO3aNawEhO43sbGxg//Z29sbDAZH+7RGRkbKIzz9/f3btm1LTk5evXq1UqmMioqaN2/emTNnTp8+nZycHBMTI6/f2dkZFRUVFhY2+EV6enry8/NVKpVOp9Pr9fHx8d3d3d3d3eMp4ebNm10uFwDYbLb58+eHTim2b9/+29/+dsQduaMdxABACD2iJEkasqSsrCwhISEpKSkhIQEAIiIiQj3x1tbWmTNntra2MgwDAC+//PLSpUtbW1svXboUCoAJEyZcvnx5yL06hYWFzc3N6enpBoPh8ccfH37j0Bj+/Oc/O51OiqIYhlm5cqU8cHTt2rUdO3YMCYA73UGAyRgA9wWfz4eVgNDY9Hr9P+Fd9u3bl5GRAQAJCQlKpTLUl9+xY8fkyZOTk5MDgYAcAE8++WRMTExLS8u5c+eSk5PlqFAoFBEREf39/aGxmt7eXpfLNX36dJ1ON2fOnPj4eIVCMf7yiKJYWVm5cOFCAPjlL38pL9yzZ48oit9xB0GBAYAQeoQpFIrB/f0hIiMj5R86Ozt37do1a9asGTNmREZG3rhxIzw8HABefPHF/fv3cxw3e/bsKVOmyCvHxMQMHt+PiIjYsGHD+vXrY2NjY2JiQqcU41dZWfniiy+GXrO/v//999+fOnXqd99BDIB7oLy8PDc3F+sBoftBUlJSenr6QKcYQO77yzdNhhrriRMnBgKB4du+9NJLH330UWtra1tbmxwAERERw5v4l156qaqq6quvvmpvb1er1dHR0XdUwvb29paWlpSUFPmfFRUVZ8+enTt37nfcwbMXMADuReuPlYDQ/SMhISEjI8NisQztFIeHf+NYjVqt1ul0ra2tLS0ts2bNmjBhgnzFeLh33nnHZrMdO3Zs6tSpKSkp47wFKOTMmTOhAPjDH/4QFxc3c+bMcW574cKF1157bfgOwoVg6Ed8Ehhbf4TQLaHxHwDIzMyMj4/X6/XPP//8ggULXn311dBzvIsWLWptbW1tbQ0EAoSQUGb09PQsXry4t7c3FBXLly+vra09ceLE1atX5YWxg3g8ntra2sGPFg/W1tYmPwN88eLFv/3tbxqNJpQH47Fp06axV8AAwNYfITRAoVDIo/xy77u6unrGjBnPPPOMxWJZsGBBZmZmW1ub/NsXXnihs7OztbW1p6dn8ODPu+++++mnn5aVlYWWLFiwYPr06bW1tf/4xz+CweCQd9y3b19dXd358+dHK1IgEDhw4MC2bdtyc3PNZnNaWtod7dGSJUvG+C0OAd11ubm5mAEI3VeG3yUJAGVlZQaDQavVyv90uVyxsbE//OEPn3vuuczMTPnL3UJ3B0VGRmZnZ7e1tQ1+LOv48eMbNmx47LHHmpqaLl++HLpg+5vf/GbJkiWhgaDBb+rxeABAfqh4RNHR0bNmzYqOjv7BD35A0/TYF3W/cQcTEhICl6eGvgwOAwAzACE00BnPycmRf+7r69u+ffv06dNnzJgxY8aM0Fd79vX1he4Fys/P/+qrr0KXdnt7e1955ZXJkyfPmTPHaDReu3Zt8uTJcmDEx8fb7fYdO3YkJiaqVCqKou6oYDRN3+n3QIy2gxkZGR2TngDQYgBgBiD0CLl27VptbW1dXV1tbe1o6/zxj3+Uu+21tbUZGRlarfZHP/rRkMe7rly5cvToUXlYPy4u7tixY0ql8vLly2fPnp05c2ZmZmZGRgbLslOmTGlqapLf7sKFCwqFYtasWfK14sElsVgsGRkZcr9+tOVj7Mhom8vfJPGNdYIB8E/NAKwEhO4h+S7PMcZbEhIS5IvAEydOvHHjBk3TiYmJkyZNGrwOIUQek0lNTVUqlfJXAKWkpKSlpSkUimnTpiUmJk6bNk3+Wa/XT5s27dKlS5IkEUJC3wU0uCSh20/HWD7Gjoy4+YIFC0bbwWOXp2IAIIQeOQkJCeMcQx/j8WP5GavxvE5ERIRGo9FoNOMvyThf+btsfrYuiAFwX/jnPOOOEEIjwttAEULoEXXrDGDL/23H6vheuOuCWAkIofufopnvwlpACKFHEA4BIYQQBgBCCKFHyf8HplQfmubRHfIAAAAASUVORK5CYII=;" vertex="1" parent="1">
          <mxGeometry x="50" y="760" width="289.17" height="170" as="geometry" />
        </mxCell>
        <mxCell id="R2pW2y2t2AxiuN7zkg1l-52" value="&lt;b&gt;5 уровень.&lt;/b&gt; &lt;i&gt;Работа конечных пользователей.&lt;/i&gt;" style="rounded=0;whiteSpace=wrap;html=1;align=right;verticalAlign=top;" vertex="1" parent="1">
          <mxGeometry x="40" y="970" width="800" height="120" as="geometry" />
        </mxCell>
        <mxCell id="R2pW2y2t2AxiuN7zkg1l-74" value="" style="group" vertex="1" connectable="0" parent="1">
          <mxGeometry x="50" y="1000" width="532.86" height="80" as="geometry" />
        </mxCell>
        <mxCell id="R2pW2y2t2AxiuN7zkg1l-53" value="" style="sketch=0;shadow=0;dashed=0;html=1;labelPosition=center;verticalLabelPosition=bottom;verticalAlign=top;align=center;outlineConnect=0;shape=mxgraph.veeam.3d.vm_linux;" vertex="1" parent="R2pW2y2t2AxiuN7zkg1l-74">
          <mxGeometry x="456.86" width="46" height="60" as="geometry" />
        </mxCell>
        <mxCell id="R2pW2y2t2AxiuN7zkg1l-57" value="" style="sketch=0;shadow=0;dashed=0;html=1;labelPosition=center;verticalLabelPosition=bottom;verticalAlign=top;align=center;outlineConnect=0;shape=mxgraph.veeam.3d.vm_linux;" vertex="1" parent="R2pW2y2t2AxiuN7zkg1l-74">
          <mxGeometry x="486.86" y="20" width="46" height="60" as="geometry" />
        </mxCell>
        <mxCell id="R2pW2y2t2AxiuN7zkg1l-58" value="" style="sketch=0;shadow=0;dashed=0;html=1;labelPosition=center;verticalLabelPosition=bottom;verticalAlign=top;align=center;outlineConnect=0;shape=mxgraph.veeam.3d.vm_linux;" vertex="1" parent="R2pW2y2t2AxiuN7zkg1l-74">
          <mxGeometry x="410.86" width="46" height="60" as="geometry" />
        </mxCell>
        <mxCell id="R2pW2y2t2AxiuN7zkg1l-59" value="" style="sketch=0;shadow=0;dashed=0;html=1;labelPosition=center;verticalLabelPosition=bottom;verticalAlign=top;align=center;outlineConnect=0;shape=mxgraph.veeam.3d.vm_linux;" vertex="1" parent="R2pW2y2t2AxiuN7zkg1l-74">
          <mxGeometry x="440.86" y="20" width="46" height="60" as="geometry" />
        </mxCell>
        <mxCell id="R2pW2y2t2AxiuN7zkg1l-60" value="" style="sketch=0;shadow=0;dashed=0;html=1;labelPosition=center;verticalLabelPosition=bottom;verticalAlign=top;align=center;outlineConnect=0;shape=mxgraph.veeam.3d.vm_linux;" vertex="1" parent="R2pW2y2t2AxiuN7zkg1l-74">
          <mxGeometry x="364.86" width="46" height="60" as="geometry" />
        </mxCell>
        <mxCell id="R2pW2y2t2AxiuN7zkg1l-61" value="" style="sketch=0;shadow=0;dashed=0;html=1;labelPosition=center;verticalLabelPosition=bottom;verticalAlign=top;align=center;outlineConnect=0;shape=mxgraph.veeam.3d.vm_linux;" vertex="1" parent="R2pW2y2t2AxiuN7zkg1l-74">
          <mxGeometry x="394.86" y="20" width="46" height="60" as="geometry" />
        </mxCell>
        <mxCell id="R2pW2y2t2AxiuN7zkg1l-62" value="" style="sketch=0;shadow=0;dashed=0;html=1;labelPosition=center;verticalLabelPosition=bottom;verticalAlign=top;align=center;outlineConnect=0;shape=mxgraph.veeam.3d.vm_linux;" vertex="1" parent="R2pW2y2t2AxiuN7zkg1l-74">
          <mxGeometry x="318.86" width="46" height="60" as="geometry" />
        </mxCell>
        <mxCell id="R2pW2y2t2AxiuN7zkg1l-63" value="" style="sketch=0;shadow=0;dashed=0;html=1;labelPosition=center;verticalLabelPosition=bottom;verticalAlign=top;align=center;outlineConnect=0;shape=mxgraph.veeam.3d.vm_linux;" vertex="1" parent="R2pW2y2t2AxiuN7zkg1l-74">
          <mxGeometry x="348.86" y="20" width="46" height="60" as="geometry" />
        </mxCell>
        <mxCell id="R2pW2y2t2AxiuN7zkg1l-64" value="" style="sketch=0;shadow=0;dashed=0;html=1;labelPosition=center;verticalLabelPosition=bottom;verticalAlign=top;align=center;outlineConnect=0;shape=mxgraph.veeam.3d.vm_linux;" vertex="1" parent="R2pW2y2t2AxiuN7zkg1l-74">
          <mxGeometry x="272.86" width="46" height="60" as="geometry" />
        </mxCell>
        <mxCell id="R2pW2y2t2AxiuN7zkg1l-65" value="" style="sketch=0;shadow=0;dashed=0;html=1;labelPosition=center;verticalLabelPosition=bottom;verticalAlign=top;align=center;outlineConnect=0;shape=mxgraph.veeam.3d.vm_linux;" vertex="1" parent="R2pW2y2t2AxiuN7zkg1l-74">
          <mxGeometry x="302.86" y="20" width="46" height="60" as="geometry" />
        </mxCell>
        <mxCell id="R2pW2y2t2AxiuN7zkg1l-66" value="" style="sketch=0;shadow=0;dashed=0;html=1;labelPosition=center;verticalLabelPosition=bottom;verticalAlign=top;align=center;outlineConnect=0;shape=mxgraph.veeam.3d.vm_linux;" vertex="1" parent="R2pW2y2t2AxiuN7zkg1l-74">
          <mxGeometry x="226.86" width="46" height="60" as="geometry" />
        </mxCell>
        <mxCell id="R2pW2y2t2AxiuN7zkg1l-67" value="" style="sketch=0;shadow=0;dashed=0;html=1;labelPosition=center;verticalLabelPosition=bottom;verticalAlign=top;align=center;outlineConnect=0;shape=mxgraph.veeam.3d.vm_linux;" vertex="1" parent="R2pW2y2t2AxiuN7zkg1l-74">
          <mxGeometry x="256.86" y="20" width="46" height="60" as="geometry" />
        </mxCell>
        <mxCell id="R2pW2y2t2AxiuN7zkg1l-68" value="" style="sketch=0;shadow=0;dashed=0;html=1;labelPosition=center;verticalLabelPosition=bottom;verticalAlign=top;align=center;outlineConnect=0;shape=mxgraph.veeam.3d.vm_windows;" vertex="1" parent="R2pW2y2t2AxiuN7zkg1l-74">
          <mxGeometry x="108.86000000000001" width="46" height="60" as="geometry" />
        </mxCell>
        <mxCell id="R2pW2y2t2AxiuN7zkg1l-69" value="" style="sketch=0;shadow=0;dashed=0;html=1;labelPosition=center;verticalLabelPosition=bottom;verticalAlign=top;align=center;outlineConnect=0;shape=mxgraph.veeam.3d.vm_windows;" vertex="1" parent="R2pW2y2t2AxiuN7zkg1l-74">
          <mxGeometry x="141.86" y="20" width="46" height="60" as="geometry" />
        </mxCell>
        <mxCell id="R2pW2y2t2AxiuN7zkg1l-70" value="" style="sketch=0;shadow=0;dashed=0;html=1;labelPosition=center;verticalLabelPosition=bottom;verticalAlign=top;align=center;outlineConnect=0;shape=mxgraph.veeam.3d.vm_windows;" vertex="1" parent="R2pW2y2t2AxiuN7zkg1l-74">
          <mxGeometry x="55.360000000000014" width="46" height="60" as="geometry" />
        </mxCell>
        <mxCell id="R2pW2y2t2AxiuN7zkg1l-71" value="" style="sketch=0;shadow=0;dashed=0;html=1;labelPosition=center;verticalLabelPosition=bottom;verticalAlign=top;align=center;outlineConnect=0;shape=mxgraph.veeam.3d.vm_windows;" vertex="1" parent="R2pW2y2t2AxiuN7zkg1l-74">
          <mxGeometry x="88.36000000000001" y="20" width="46" height="60" as="geometry" />
        </mxCell>
        <mxCell id="R2pW2y2t2AxiuN7zkg1l-72" value="" style="sketch=0;shadow=0;dashed=0;html=1;labelPosition=center;verticalLabelPosition=bottom;verticalAlign=top;align=center;outlineConnect=0;shape=mxgraph.veeam.3d.vm_windows;" vertex="1" parent="R2pW2y2t2AxiuN7zkg1l-74">
          <mxGeometry width="46" height="60" as="geometry" />
        </mxCell>
        <mxCell id="R2pW2y2t2AxiuN7zkg1l-73" value="" style="sketch=0;shadow=0;dashed=0;html=1;labelPosition=center;verticalLabelPosition=bottom;verticalAlign=top;align=center;outlineConnect=0;shape=mxgraph.veeam.3d.vm_windows;" vertex="1" parent="R2pW2y2t2AxiuN7zkg1l-74">
          <mxGeometry x="33" y="20" width="46" height="60" as="geometry" />
        </mxCell>
        <mxCell id="R2pW2y2t2AxiuN7zkg1l-77" value="" style="endArrow=classic;startArrow=classic;html=1;shadow=1;entryX=0;entryY=0.75;entryDx=0;entryDy=0;" edge="1" parent="1" source="R2pW2y2t2AxiuN7zkg1l-12" target="R2pW2y2t2AxiuN7zkg1l-13">
          <mxGeometry width="50" height="50" relative="1" as="geometry">
            <mxPoint x="329.89029535864984" y="272" as="sourcePoint" />
            <mxPoint x="417.1476793248944" y="84" as="targetPoint" />
            <Array as="points">
              <mxPoint x="160" y="310" />
            </Array>
          </mxGeometry>
        </mxCell>
        <mxCell id="R2pW2y2t2AxiuN7zkg1l-78" value="" style="endArrow=classic;startArrow=classic;html=1;shadow=1;exitX=0.88;exitY=0.1;exitDx=0;exitDy=0;exitPerimeter=0;" edge="1" parent="1" source="R2pW2y2t2AxiuN7zkg1l-11" target="R2pW2y2t2AxiuN7zkg1l-13">
          <mxGeometry width="50" height="50" relative="1" as="geometry">
            <mxPoint x="339.89029535864984" y="282" as="sourcePoint" />
            <mxPoint x="427.1476793248944" y="94" as="targetPoint" />
            <Array as="points">
              <mxPoint x="310" y="380" />
            </Array>
          </mxGeometry>
        </mxCell>
        <mxCell id="R2pW2y2t2AxiuN7zkg1l-79" value="" style="endArrow=classic;startArrow=classic;html=1;shadow=1;exitX=0;exitY=0.5;exitDx=0;exitDy=0;exitPerimeter=0;" edge="1" parent="1" source="R2pW2y2t2AxiuN7zkg1l-11" target="R2pW2y2t2AxiuN7zkg1l-12">
          <mxGeometry width="50" height="50" relative="1" as="geometry">
            <mxPoint x="349.89029535864984" y="292" as="sourcePoint" />
            <mxPoint x="437.1476793248944" y="104" as="targetPoint" />
            <Array as="points">
              <mxPoint x="170" y="430" />
            </Array>
          </mxGeometry>
        </mxCell>
        <mxCell id="R2pW2y2t2AxiuN7zkg1l-80" value="" style="endArrow=classic;startArrow=classic;html=1;shadow=1;entryX=0.12;entryY=0.9;entryDx=0;entryDy=0;entryPerimeter=0;" edge="1" parent="1" source="R2pW2y2t2AxiuN7zkg1l-40" target="R2pW2y2t2AxiuN7zkg1l-11">
          <mxGeometry width="50" height="50" relative="1" as="geometry">
            <mxPoint x="359.89029535864984" y="302" as="sourcePoint" />
            <mxPoint x="447.1476793248944" y="114" as="targetPoint" />
          </mxGeometry>
        </mxCell>
        <mxCell id="R2pW2y2t2AxiuN7zkg1l-81" value="" style="endArrow=classic;startArrow=classic;html=1;shadow=1;entryX=0.88;entryY=0.9;entryDx=0;entryDy=0;entryPerimeter=0;" edge="1" parent="1" source="R2pW2y2t2AxiuN7zkg1l-45" target="R2pW2y2t2AxiuN7zkg1l-11">
          <mxGeometry width="50" height="50" relative="1" as="geometry">
            <mxPoint x="369.89029535864984" y="312" as="sourcePoint" />
            <mxPoint x="457.1476793248944" y="124" as="targetPoint" />
          </mxGeometry>
        </mxCell>
        <mxCell id="R2pW2y2t2AxiuN7zkg1l-83" value="" style="endArrow=classic;startArrow=classic;html=1;shadow=1;" edge="1" parent="1">
          <mxGeometry width="50" height="50" relative="1" as="geometry">
            <mxPoint x="360" y="670" as="sourcePoint" />
            <mxPoint x="170" y="670" as="targetPoint" />
          </mxGeometry>
        </mxCell>
        <mxCell id="R2pW2y2t2AxiuN7zkg1l-84" value="" style="html=1;shadow=0;dashed=0;align=center;verticalAlign=middle;shape=mxgraph.arrows2.arrow;dy=0.6;dx=40;direction=north;notch=0;" vertex="1" parent="1">
          <mxGeometry x="393" y="200" width="32" height="60" as="geometry" />
        </mxCell>
        <mxCell id="R2pW2y2t2AxiuN7zkg1l-85" value="" style="html=1;shadow=0;dashed=0;align=center;verticalAlign=middle;shape=mxgraph.arrows2.arrow;dy=0.6;dx=40;direction=north;notch=0;" vertex="1" parent="1">
          <mxGeometry x="393" y="454" width="32" height="60" as="geometry" />
        </mxCell>
        <mxCell id="R2pW2y2t2AxiuN7zkg1l-86" value="" style="html=1;shadow=0;dashed=0;align=center;verticalAlign=middle;shape=mxgraph.arrows2.arrow;dy=0.6;dx=40;direction=north;notch=0;" vertex="1" parent="1">
          <mxGeometry x="388" y="700" width="32" height="60" as="geometry" />
        </mxCell>
        <mxCell id="R2pW2y2t2AxiuN7zkg1l-87" value="" style="html=1;shadow=0;dashed=0;align=center;verticalAlign=middle;shape=mxgraph.arrows2.arrow;dy=0.6;dx=40;direction=north;notch=0;" vertex="1" parent="1">
          <mxGeometry x="393" y="930" width="32" height="60" as="geometry" />
        </mxCell>
      </root>
    </mxGraphModel>
  </diagram>
</mxfile>
